<?xml version="1.0" encoding="UTF-8" standalone="no"?>
<!DOCTYPE svg PUBLIC "-//W3C//DTD SVG 1.1//EN"
 "http://www.w3.org/Graphics/SVG/1.1/DTD/svg11.dtd">
<!-- Generated by graphviz version 2.40.1 (20161225.0304)
 -->
<!-- Title: controllers_diagram Pages: 1 -->
<svg width="666pt" height="636pt"
 viewBox="0.00 0.00 666.08 636.00" xmlns="http://www.w3.org/2000/svg" xmlns:xlink="http://www.w3.org/1999/xlink">
<g id="graph0" class="graph" transform="scale(1 1) rotate(0) translate(4 632)">
<title>controllers_diagram</title>
<polygon fill="transparent" stroke="transparent" points="-4,4 -4,-632 662.0762,-632 662.0762,4 -4,4"/>
<!-- _diagram_info -->
<g id="node1" class="node">
<title>_diagram_info</title>
<text text-anchor="start" x="365" y="-109.6" font-family="Times,serif" font-size="13.00" fill="#000000">Controllers diagram</text>
<text text-anchor="start" x="365" y="-96.6" font-family="Times,serif" font-size="13.00" fill="#000000">Date: May 03 2019 &#45; 12:03</text>
<text text-anchor="start" x="365" y="-83.6" font-family="Times,serif" font-size="13.00" fill="#000000">Migration version: 20190430134848</text>
<text text-anchor="start" x="365" y="-70.6" font-family="Times,serif" font-size="13.00" fill="#000000">Generated by RailRoady 1.5.3</text>
<text text-anchor="start" x="365" y="-57.6" font-family="Times,serif" font-size="13.00" fill="#000000">http://railroady.prestonlee.com</text>
</g>
<!-- DeliveriesController -->
<g id="node2" class="node">
<title>DeliveriesController</title>
<path fill="none" stroke="#000000" d="M539,-153.5C539,-153.5 646.0762,-153.5 646.0762,-153.5 652.0762,-153.5 658.0762,-159.5 658.0762,-165.5 658.0762,-165.5 658.0762,-287.5 658.0762,-287.5 658.0762,-293.5 652.0762,-299.5 646.0762,-299.5 646.0762,-299.5 539,-299.5 539,-299.5 533,-299.5 527,-293.5 527,-287.5 527,-287.5 527,-165.5 527,-165.5 527,-159.5 533,-153.5 539,-153.5"/>
<text text-anchor="middle" x="592.5381" y="-284.3" font-family="Times,serif" font-size="14.00" fill="#000000">DeliveriesController</text>
<polyline fill="none" stroke="#000000" points="527,-277.5 658.0762,-277.5 "/>
<text text-anchor="start" x="535" y="-262.3" font-family="Times,serif" font-size="14.00" fill="#000000">edit</text>
<text text-anchor="start" x="535" y="-248.3" font-family="Times,serif" font-size="14.00" fill="#000000">index</text>
<text text-anchor="start" x="535" y="-234.3" font-family="Times,serif" font-size="14.00" fill="#000000">show</text>
<text text-anchor="start" x="535" y="-220.3" font-family="Times,serif" font-size="14.00" fill="#000000">update</text>
<polyline fill="none" stroke="#000000" points="527,-213.5 658.0762,-213.5 "/>
<polyline fill="none" stroke="#000000" points="527,-189.5 658.0762,-189.5 "/>
<text text-anchor="start" x="535" y="-174.3" font-family="Times,serif" font-size="14.00" fill="#000000">_layout</text>
<text text-anchor="start" x="535" y="-160.3" font-family="Times,serif" font-size="14.00" fill="#000000">delivery_params</text>
</g>
<!-- DocumentsController -->
<g id="node3" class="node">
<title>DocumentsController</title>
<path fill="none" stroke="#000000" d="M369,-153.5C369,-153.5 482.3105,-153.5 482.3105,-153.5 488.3105,-153.5 494.3105,-159.5 494.3105,-165.5 494.3105,-165.5 494.3105,-343.5 494.3105,-343.5 494.3105,-349.5 488.3105,-355.5 482.3105,-355.5 482.3105,-355.5 369,-355.5 369,-355.5 363,-355.5 357,-349.5 357,-343.5 357,-343.5 357,-165.5 357,-165.5 357,-159.5 363,-153.5 369,-153.5"/>
<text text-anchor="middle" x="425.6553" y="-340.3" font-family="Times,serif" font-size="14.00" fill="#000000">DocumentsController</text>
<polyline fill="none" stroke="#000000" points="357,-333.5 494.3105,-333.5 "/>
<text text-anchor="start" x="365" y="-318.3" font-family="Times,serif" font-size="14.00" fill="#000000">create</text>
<text text-anchor="start" x="365" y="-304.3" font-family="Times,serif" font-size="14.00" fill="#000000">destroy</text>
<text text-anchor="start" x="365" y="-290.3" font-family="Times,serif" font-size="14.00" fill="#000000">edit</text>
<text text-anchor="start" x="365" y="-276.3" font-family="Times,serif" font-size="14.00" fill="#000000">new</text>
<text text-anchor="start" x="365" y="-262.3" font-family="Times,serif" font-size="14.00" fill="#000000">show</text>
<text text-anchor="start" x="365" y="-248.3" font-family="Times,serif" font-size="14.00" fill="#000000">update</text>
<polyline fill="none" stroke="#000000" points="357,-241.5 494.3105,-241.5 "/>
<polyline fill="none" stroke="#000000" points="357,-217.5 494.3105,-217.5 "/>
<text text-anchor="start" x="365" y="-202.3" font-family="Times,serif" font-size="14.00" fill="#000000">_layout</text>
<text text-anchor="start" x="365" y="-188.3" font-family="Times,serif" font-size="14.00" fill="#000000">bus_params</text>
<text text-anchor="start" x="365" y="-174.3" font-family="Times,serif" font-size="14.00" fill="#000000">delivery_params</text>
<text text-anchor="start" x="365" y="-160.3" font-family="Times,serif" font-size="14.00" fill="#000000">document_params</text>
</g>
<!-- ApplicationController -->
<g id="node4" class="node">
<title>ApplicationController</title>
<path fill="none" stroke="#000000" d="M199,-.5C199,-.5 314.6416,-.5 314.6416,-.5 320.6416,-.5 326.6416,-6.5 326.6416,-12.5 326.6416,-12.5 326.6416,-80.5 326.6416,-80.5 326.6416,-86.5 320.6416,-92.5 314.6416,-92.5 314.6416,-92.5 199,-92.5 199,-92.5 193,-92.5 187,-86.5 187,-80.5 187,-80.5 187,-12.5 187,-12.5 187,-6.5 193,-.5 199,-.5"/>
<text text-anchor="middle" x="256.8208" y="-77.3" font-family="Times,serif" font-size="14.00" fill="#000000">ApplicationController</text>
<polyline fill="none" stroke="#000000" points="187,-70.5 326.6416,-70.5 "/>
<polyline fill="none" stroke="#000000" points="187,-46.5 326.6416,-46.5 "/>
<polyline fill="none" stroke="#000000" points="187,-22.5 326.6416,-22.5 "/>
<text text-anchor="start" x="195" y="-7.3" font-family="Times,serif" font-size="14.00" fill="#000000">_layout</text>
</g>
<!-- TradesController -->
<g id="node5" class="node">
<title>TradesController</title>
<path fill="none" stroke="#000000" d="M97,-425.5C97,-425.5 184.1494,-425.5 184.1494,-425.5 190.1494,-425.5 196.1494,-431.5 196.1494,-437.5 196.1494,-437.5 196.1494,-615.5 196.1494,-615.5 196.1494,-621.5 190.1494,-627.5 184.1494,-627.5 184.1494,-627.5 97,-627.5 97,-627.5 91,-627.5 85,-621.5 85,-615.5 85,-615.5 85,-437.5 85,-437.5 85,-431.5 91,-425.5 97,-425.5"/>
<text text-anchor="middle" x="140.5747" y="-612.3" font-family="Times,serif" font-size="14.00" fill="#000000">TradesController</text>
<polyline fill="none" stroke="#000000" points="85,-605.5 196.1494,-605.5 "/>
<text text-anchor="start" x="93" y="-590.3" font-family="Times,serif" font-size="14.00" fill="#000000">create</text>
<text text-anchor="start" x="93" y="-576.3" font-family="Times,serif" font-size="14.00" fill="#000000">destroy</text>
<text text-anchor="start" x="93" y="-562.3" font-family="Times,serif" font-size="14.00" fill="#000000">edit</text>
<text text-anchor="start" x="93" y="-548.3" font-family="Times,serif" font-size="14.00" fill="#000000">index</text>
<text text-anchor="start" x="93" y="-534.3" font-family="Times,serif" font-size="14.00" fill="#000000">new</text>
<text text-anchor="start" x="93" y="-520.3" font-family="Times,serif" font-size="14.00" fill="#000000">show</text>
<text text-anchor="start" x="93" y="-506.3" font-family="Times,serif" font-size="14.00" fill="#000000">update</text>
<polyline fill="none" stroke="#000000" points="85,-499.5 196.1494,-499.5 "/>
<polyline fill="none" stroke="#000000" points="85,-475.5 196.1494,-475.5 "/>
<text text-anchor="start" x="93" y="-460.3" font-family="Times,serif" font-size="14.00" fill="#000000">_layout</text>
<text text-anchor="start" x="93" y="-446.3" font-family="Times,serif" font-size="14.00" fill="#000000">search_used_bus</text>
<text text-anchor="start" x="93" y="-432.3" font-family="Times,serif" font-size="14.00" fill="#000000">trade_params</text>
</g>
<!-- FactoryOrdersController -->
<g id="node6" class="node">
<title>FactoryOrdersController</title>
<path fill="none" stroke="#000000" d="M12,-68.5C12,-68.5 142.4072,-68.5 142.4072,-68.5 148.4072,-68.5 154.4072,-74.5 154.4072,-80.5 154.4072,-80.5 154.4072,-174.5 154.4072,-174.5 154.4072,-180.5 148.4072,-186.5 142.4072,-186.5 142.4072,-186.5 12,-186.5 12,-186.5 6,-186.5 0,-180.5 0,-174.5 0,-174.5 0,-80.5 0,-80.5 0,-74.5 6,-68.5 12,-68.5"/>
<text text-anchor="middle" x="77.2036" y="-171.3" font-family="Times,serif" font-size="14.00" fill="#000000">FactoryOrdersController</text>
<polyline fill="none" stroke="#000000" points="0,-164.5 154.4072,-164.5 "/>
<text text-anchor="start" x="8" y="-149.3" font-family="Times,serif" font-size="14.00" fill="#000000">edit</text>
<text text-anchor="start" x="8" y="-135.3" font-family="Times,serif" font-size="14.00" fill="#000000">update</text>
<polyline fill="none" stroke="#000000" points="0,-128.5 154.4072,-128.5 "/>
<polyline fill="none" stroke="#000000" points="0,-104.5 154.4072,-104.5 "/>
<text text-anchor="start" x="8" y="-89.3" font-family="Times,serif" font-size="14.00" fill="#000000">_layout</text>
<text text-anchor="start" x="8" y="-75.3" font-family="Times,serif" font-size="14.00" fill="#000000">factory_order_params</text>
</g>
<!-- PagesController -->
<g id="node7" class="node">
<title>PagesController</title>
<path fill="none" stroke="#000000" d="M539,-527.5C539,-527.5 621.207,-527.5 621.207,-527.5 627.207,-527.5 633.207,-533.5 633.207,-539.5 633.207,-539.5 633.207,-605.5 633.207,-605.5 633.207,-611.5 627.207,-617.5 621.207,-617.5 621.207,-617.5 539,-617.5 539,-617.5 533,-617.5 527,-611.5 527,-605.5 527,-605.5 527,-539.5 527,-539.5 527,-533.5 533,-527.5 539,-527.5"/>
<text text-anchor="middle" x="580.1035" y="-602.3" font-family="Times,serif" font-size="14.00" fill="#000000">PagesController</text>
<polyline fill="none" stroke="#000000" points="527,-595.5 633.207,-595.5 "/>
<text text-anchor="start" x="535" y="-580.3" font-family="Times,serif" font-size="14.00" fill="#000000">home</text>
<polyline fill="none" stroke="#000000" points="527,-573.5 633.207,-573.5 "/>
<polyline fill="none" stroke="#000000" points="527,-549.5 633.207,-549.5 "/>
<text text-anchor="start" x="535" y="-534.3" font-family="Times,serif" font-size="14.00" fill="#000000">_layout</text>
</g>
<!-- WorksController -->
<g id="node8" class="node">
<title>WorksController</title>
<path fill="none" stroke="#000000" d="M539,-340.5C539,-340.5 624.7549,-340.5 624.7549,-340.5 630.7549,-340.5 636.7549,-346.5 636.7549,-352.5 636.7549,-352.5 636.7549,-474.5 636.7549,-474.5 636.7549,-480.5 630.7549,-486.5 624.7549,-486.5 624.7549,-486.5 539,-486.5 539,-486.5 533,-486.5 527,-480.5 527,-474.5 527,-474.5 527,-352.5 527,-352.5 527,-346.5 533,-340.5 539,-340.5"/>
<text text-anchor="middle" x="581.8774" y="-471.3" font-family="Times,serif" font-size="14.00" fill="#000000">WorksController</text>
<polyline fill="none" stroke="#000000" points="527,-464.5 636.7549,-464.5 "/>
<text text-anchor="start" x="535" y="-449.3" font-family="Times,serif" font-size="14.00" fill="#000000">create</text>
<text text-anchor="start" x="535" y="-435.3" font-family="Times,serif" font-size="14.00" fill="#000000">edit</text>
<text text-anchor="start" x="535" y="-421.3" font-family="Times,serif" font-size="14.00" fill="#000000">new</text>
<text text-anchor="start" x="535" y="-407.3" font-family="Times,serif" font-size="14.00" fill="#000000">update</text>
<polyline fill="none" stroke="#000000" points="527,-400.5 636.7549,-400.5 "/>
<polyline fill="none" stroke="#000000" points="527,-376.5 636.7549,-376.5 "/>
<text text-anchor="start" x="535" y="-361.3" font-family="Times,serif" font-size="14.00" fill="#000000">_layout</text>
<text text-anchor="start" x="535" y="-347.3" font-family="Times,serif" font-size="14.00" fill="#000000">work_params</text>
</g>
<!-- OrdersController -->
<g id="node9" class="node">
<title>OrdersController</title>
<path fill="none" stroke="#000000" d="M199,-119.5C199,-119.5 308.4141,-119.5 308.4141,-119.5 314.4141,-119.5 320.4141,-125.5 320.4141,-131.5 320.4141,-131.5 320.4141,-365.5 320.4141,-365.5 320.4141,-371.5 314.4141,-377.5 308.4141,-377.5 308.4141,-377.5 199,-377.5 199,-377.5 193,-377.5 187,-371.5 187,-365.5 187,-365.5 187,-131.5 187,-131.5 187,-125.5 193,-119.5 199,-119.5"/>
<text text-anchor="middle" x="253.707" y="-362.3" font-family="Times,serif" font-size="14.00" fill="#000000">OrdersController</text>
<polyline fill="none" stroke="#000000" points="187,-355.5 320.4141,-355.5 "/>
<text text-anchor="start" x="195" y="-340.3" font-family="Times,serif" font-size="14.00" fill="#000000">create</text>
<text text-anchor="start" x="195" y="-326.3" font-family="Times,serif" font-size="14.00" fill="#000000">destroy</text>
<text text-anchor="start" x="195" y="-312.3" font-family="Times,serif" font-size="14.00" fill="#000000">edit</text>
<text text-anchor="start" x="195" y="-298.3" font-family="Times,serif" font-size="14.00" fill="#000000">index</text>
<text text-anchor="start" x="195" y="-284.3" font-family="Times,serif" font-size="14.00" fill="#000000">new</text>
<text text-anchor="start" x="195" y="-270.3" font-family="Times,serif" font-size="14.00" fill="#000000">show</text>
<text text-anchor="start" x="195" y="-256.3" font-family="Times,serif" font-size="14.00" fill="#000000">update</text>
<polyline fill="none" stroke="#000000" points="187,-249.5 320.4141,-249.5 "/>
<polyline fill="none" stroke="#000000" points="187,-225.5 320.4141,-225.5 "/>
<text text-anchor="start" x="195" y="-210.3" font-family="Times,serif" font-size="14.00" fill="#000000">_layout</text>
<text text-anchor="start" x="195" y="-196.3" font-family="Times,serif" font-size="14.00" fill="#000000">bus_params</text>
<text text-anchor="start" x="195" y="-182.3" font-family="Times,serif" font-size="14.00" fill="#000000">cherche_stock</text>
<text text-anchor="start" x="195" y="-168.3" font-family="Times,serif" font-size="14.00" fill="#000000">erase_all_line</text>
<text text-anchor="start" x="195" y="-154.3" font-family="Times,serif" font-size="14.00" fill="#000000">erase_all_trade</text>
<text text-anchor="start" x="195" y="-140.3" font-family="Times,serif" font-size="14.00" fill="#000000">order_params</text>
<text text-anchor="start" x="195" y="-126.3" font-family="Times,serif" font-size="14.00" fill="#000000">set_bus_to_available</text>
</g>
<!-- LinesController -->
<g id="node10" class="node">
<title>LinesController</title>
<path fill="none" stroke="#000000" d="M63,-221.5C63,-221.5 143.6484,-221.5 143.6484,-221.5 149.6484,-221.5 155.6484,-227.5 155.6484,-233.5 155.6484,-233.5 155.6484,-383.5 155.6484,-383.5 155.6484,-389.5 149.6484,-395.5 143.6484,-395.5 143.6484,-395.5 63,-395.5 63,-395.5 57,-395.5 51,-389.5 51,-383.5 51,-383.5 51,-233.5 51,-233.5 51,-227.5 57,-221.5 63,-221.5"/>
<text text-anchor="middle" x="103.3242" y="-380.3" font-family="Times,serif" font-size="14.00" fill="#000000">LinesController</text>
<polyline fill="none" stroke="#000000" points="51,-373.5 155.6484,-373.5 "/>
<text text-anchor="start" x="59" y="-358.3" font-family="Times,serif" font-size="14.00" fill="#000000">create</text>
<text text-anchor="start" x="59" y="-344.3" font-family="Times,serif" font-size="14.00" fill="#000000">destroy</text>
<text text-anchor="start" x="59" y="-330.3" font-family="Times,serif" font-size="14.00" fill="#000000">edit</text>
<text text-anchor="start" x="59" y="-316.3" font-family="Times,serif" font-size="14.00" fill="#000000">new</text>
<text text-anchor="start" x="59" y="-302.3" font-family="Times,serif" font-size="14.00" fill="#000000">update</text>
<polyline fill="none" stroke="#000000" points="51,-295.5 155.6484,-295.5 "/>
<polyline fill="none" stroke="#000000" points="51,-271.5 155.6484,-271.5 "/>
<text text-anchor="start" x="59" y="-256.3" font-family="Times,serif" font-size="14.00" fill="#000000">_layout</text>
<text text-anchor="start" x="59" y="-242.3" font-family="Times,serif" font-size="14.00" fill="#000000">delete_trade</text>
<text text-anchor="start" x="59" y="-228.3" font-family="Times,serif" font-size="14.00" fill="#000000">line_params</text>
</g>
<!-- FerriesController -->
<g id="node11" class="node">
<title>FerriesController</title>
<path fill="none" stroke="#000000" d="M250,-408.5C250,-408.5 338.4209,-408.5 338.4209,-408.5 344.4209,-408.5 350.4209,-414.5 350.4209,-420.5 350.4209,-420.5 350.4209,-584.5 350.4209,-584.5 350.4209,-590.5 344.4209,-596.5 338.4209,-596.5 338.4209,-596.5 250,-596.5 250,-596.5 244,-596.5 238,-590.5 238,-584.5 238,-584.5 238,-420.5 238,-420.5 238,-414.5 244,-408.5 250,-408.5"/>
<text text-anchor="middle" x="294.2104" y="-581.3" font-family="Times,serif" font-size="14.00" fill="#000000">FerriesController</text>
<polyline fill="none" stroke="#000000" points="238,-574.5 350.4209,-574.5 "/>
<text text-anchor="start" x="246" y="-559.3" font-family="Times,serif" font-size="14.00" fill="#000000">create</text>
<text text-anchor="start" x="246" y="-545.3" font-family="Times,serif" font-size="14.00" fill="#000000">destroy</text>
<text text-anchor="start" x="246" y="-531.3" font-family="Times,serif" font-size="14.00" fill="#000000">edit</text>
<text text-anchor="start" x="246" y="-517.3" font-family="Times,serif" font-size="14.00" fill="#000000">index</text>
<text text-anchor="start" x="246" y="-503.3" font-family="Times,serif" font-size="14.00" fill="#000000">new</text>
<text text-anchor="start" x="246" y="-489.3" font-family="Times,serif" font-size="14.00" fill="#000000">show</text>
<text text-anchor="start" x="246" y="-475.3" font-family="Times,serif" font-size="14.00" fill="#000000">update</text>
<polyline fill="none" stroke="#000000" points="238,-468.5 350.4209,-468.5 "/>
<polyline fill="none" stroke="#000000" points="238,-444.5 350.4209,-444.5 "/>
<text text-anchor="start" x="246" y="-429.3" font-family="Times,serif" font-size="14.00" fill="#000000">_layout</text>
<text text-anchor="start" x="246" y="-415.3" font-family="Times,serif" font-size="14.00" fill="#000000">ferry_params</text>
</g>
<!-- BusesController -->
<g id="node12" class="node">
<title>BusesController</title>
<path fill="none" stroke="#000000" d="M403,-391.5C403,-391.5 485.9932,-391.5 485.9932,-391.5 491.9932,-391.5 497.9932,-397.5 497.9932,-403.5 497.9932,-403.5 497.9932,-567.5 497.9932,-567.5 497.9932,-573.5 491.9932,-579.5 485.9932,-579.5 485.9932,-579.5 403,-579.5 403,-579.5 397,-579.5 391,-573.5 391,-567.5 391,-567.5 391,-403.5 391,-403.5 391,-397.5 397,-391.5 403,-391.5"/>
<text text-anchor="middle" x="444.4966" y="-564.3" font-family="Times,serif" font-size="14.00" fill="#000000">BusesController</text>
<polyline fill="none" stroke="#000000" points="391,-557.5 497.9932,-557.5 "/>
<text text-anchor="start" x="399" y="-542.3" font-family="Times,serif" font-size="14.00" fill="#000000">create</text>
<text text-anchor="start" x="399" y="-528.3" font-family="Times,serif" font-size="14.00" fill="#000000">destroy</text>
<text text-anchor="start" x="399" y="-514.3" font-family="Times,serif" font-size="14.00" fill="#000000">edit</text>
<text text-anchor="start" x="399" y="-500.3" font-family="Times,serif" font-size="14.00" fill="#000000">index</text>
<text text-anchor="start" x="399" y="-486.3" font-family="Times,serif" font-size="14.00" fill="#000000">new</text>
<text text-anchor="start" x="399" y="-472.3" font-family="Times,serif" font-size="14.00" fill="#000000">show</text>
<text text-anchor="start" x="399" y="-458.3" font-family="Times,serif" font-size="14.00" fill="#000000">update</text>
<polyline fill="none" stroke="#000000" points="391,-451.5 497.9932,-451.5 "/>
<polyline fill="none" stroke="#000000" points="391,-427.5 497.9932,-427.5 "/>
<text text-anchor="start" x="399" y="-412.3" font-family="Times,serif" font-size="14.00" fill="#000000">_layout</text>
<text text-anchor="start" x="399" y="-398.3" font-family="Times,serif" font-size="14.00" fill="#000000">bus_params</text>
</g>
</g>
</svg>
