<?xml version="1.0" encoding="UTF-8" standalone="no"?>
<!DOCTYPE svg PUBLIC "-//W3C//DTD SVG 1.1//EN"
 "http://www.w3.org/Graphics/SVG/1.1/DTD/svg11.dtd">
<!-- Generated by graphviz version 2.40.1 (20161225.0304)
 -->
<!-- Title: models_diagram Pages: 1 -->
<svg width="1596pt" height="1567pt"
 viewBox="0.00 0.00 1596.41 1567.00" xmlns="http://www.w3.org/2000/svg" xmlns:xlink="http://www.w3.org/1999/xlink">
<g id="graph0" class="graph" transform="scale(1 1) rotate(0) translate(4 1563)">
<title>models_diagram</title>
<polygon fill="transparent" stroke="transparent" points="-4,4 -4,-1563 1592.4111,-1563 1592.4111,4 -4,4"/>
<!-- _diagram_info -->
<g id="node1" class="node">
<title>_diagram_info</title>
<text text-anchor="start" x="347.0886" y="-1509.6" font-family="Times,serif" font-size="13.00" fill="#000000">Models diagram</text>
<text text-anchor="start" x="347.0886" y="-1496.6" font-family="Times,serif" font-size="13.00" fill="#000000">Date: May 03 2019 &#45; 12:03</text>
<text text-anchor="start" x="347.0886" y="-1483.6" font-family="Times,serif" font-size="13.00" fill="#000000">Migration version: 20190430134848</text>
<text text-anchor="start" x="347.0886" y="-1470.6" font-family="Times,serif" font-size="13.00" fill="#000000">Generated by RailRoady 1.5.3</text>
<text text-anchor="start" x="347.0886" y="-1457.6" font-family="Times,serif" font-size="13.00" fill="#000000">http://railroady.prestonlee.com</text>
</g>
<!-- Ferry -->
<g id="node2" class="node">
<title>Ferry</title>
<path fill="none" stroke="#000000" d="M918.9141,-757.5C918.9141,-757.5 1142.6387,-757.5 1142.6387,-757.5 1148.6387,-757.5 1154.6387,-763.5 1154.6387,-769.5 1154.6387,-769.5 1154.6387,-929.5 1154.6387,-929.5 1154.6387,-935.5 1148.6387,-941.5 1142.6387,-941.5 1142.6387,-941.5 918.9141,-941.5 918.9141,-941.5 912.9141,-941.5 906.9141,-935.5 906.9141,-929.5 906.9141,-929.5 906.9141,-769.5 906.9141,-769.5 906.9141,-763.5 912.9141,-757.5 918.9141,-757.5"/>
<text text-anchor="middle" x="1030.7764" y="-926.3" font-family="Times,serif" font-size="14.00" fill="#000000">Ferry</text>
<polyline fill="none" stroke="#000000" points="906.9141,-919.5 1154.6387,-919.5 "/>
<text text-anchor="start" x="914.9141" y="-904.3" font-family="Times,serif" font-size="14.00" fill="#000000">updated_at :timestamp without time zone</text>
<text text-anchor="start" x="914.9141" y="-890.3" font-family="Times,serif" font-size="14.00" fill="#000000">date_convoyage :date</text>
<text text-anchor="start" x="914.9141" y="-876.3" font-family="Times,serif" font-size="14.00" fill="#000000">depart :character varying</text>
<text text-anchor="start" x="914.9141" y="-862.3" font-family="Times,serif" font-size="14.00" fill="#000000">arrivee :character varying</text>
<text text-anchor="start" x="914.9141" y="-848.3" font-family="Times,serif" font-size="14.00" fill="#000000">sens :character varying</text>
<text text-anchor="start" x="914.9141" y="-834.3" font-family="Times,serif" font-size="14.00" fill="#000000">site :character varying</text>
<text text-anchor="start" x="914.9141" y="-820.3" font-family="Times,serif" font-size="14.00" fill="#000000">numero_bdc :character varying</text>
<text text-anchor="start" x="914.9141" y="-806.3" font-family="Times,serif" font-size="14.00" fill="#000000">note :character varying</text>
<text text-anchor="start" x="914.9141" y="-792.3" font-family="Times,serif" font-size="14.00" fill="#000000">bus_id :bigint</text>
<text text-anchor="start" x="914.9141" y="-778.3" font-family="Times,serif" font-size="14.00" fill="#000000">created_at :timestamp without time zone</text>
<text text-anchor="start" x="914.9141" y="-764.3" font-family="Times,serif" font-size="14.00" fill="#000000">id :bigint</text>
</g>
<!-- Document -->
<g id="node3" class="node">
<title>Document</title>
<path fill="none" stroke="#000000" d="M318.9141,-403.5C318.9141,-403.5 542.6387,-403.5 542.6387,-403.5 548.6387,-403.5 554.6387,-409.5 554.6387,-415.5 554.6387,-415.5 554.6387,-519.5 554.6387,-519.5 554.6387,-525.5 548.6387,-531.5 542.6387,-531.5 542.6387,-531.5 318.9141,-531.5 318.9141,-531.5 312.9141,-531.5 306.9141,-525.5 306.9141,-519.5 306.9141,-519.5 306.9141,-415.5 306.9141,-415.5 306.9141,-409.5 312.9141,-403.5 318.9141,-403.5"/>
<text text-anchor="middle" x="430.7764" y="-516.3" font-family="Times,serif" font-size="14.00" fill="#000000">Document</text>
<polyline fill="none" stroke="#000000" points="306.9141,-509.5 554.6387,-509.5 "/>
<text text-anchor="start" x="314.9141" y="-494.3" font-family="Times,serif" font-size="14.00" fill="#000000">id :bigint</text>
<text text-anchor="start" x="314.9141" y="-480.3" font-family="Times,serif" font-size="14.00" fill="#000000">name :character varying</text>
<text text-anchor="start" x="314.9141" y="-466.3" font-family="Times,serif" font-size="14.00" fill="#000000">pdf :text</text>
<text text-anchor="start" x="314.9141" y="-452.3" font-family="Times,serif" font-size="14.00" fill="#000000">created_at :timestamp without time zone</text>
<text text-anchor="start" x="314.9141" y="-438.3" font-family="Times,serif" font-size="14.00" fill="#000000">updated_at :timestamp without time zone</text>
<text text-anchor="start" x="314.9141" y="-424.3" font-family="Times,serif" font-size="14.00" fill="#000000">factory_order_id :bigint</text>
<text text-anchor="start" x="314.9141" y="-410.3" font-family="Times,serif" font-size="14.00" fill="#000000">delivery_id :bigint</text>
</g>
<!-- Work -->
<g id="node4" class="node">
<title>Work</title>
<path fill="none" stroke="#000000" d="M12,-361.5C12,-361.5 267.5527,-361.5 267.5527,-361.5 273.5527,-361.5 279.5527,-367.5 279.5527,-373.5 279.5527,-373.5 279.5527,-561.5 279.5527,-561.5 279.5527,-567.5 273.5527,-573.5 267.5527,-573.5 267.5527,-573.5 12,-573.5 12,-573.5 6,-573.5 0,-567.5 0,-561.5 0,-561.5 0,-373.5 0,-373.5 0,-367.5 6,-361.5 12,-361.5"/>
<text text-anchor="middle" x="139.7764" y="-558.3" font-family="Times,serif" font-size="14.00" fill="#000000">Work</text>
<polyline fill="none" stroke="#000000" points="0,-551.5 279.5527,-551.5 "/>
<text text-anchor="start" x="8" y="-536.3" font-family="Times,serif" font-size="14.00" fill="#000000">devis :character varying</text>
<text text-anchor="start" x="8" y="-522.3" font-family="Times,serif" font-size="14.00" fill="#000000">nature_travaux :character varying</text>
<text text-anchor="start" x="8" y="-508.3" font-family="Times,serif" font-size="14.00" fill="#000000">demande_preparation :date</text>
<text text-anchor="start" x="8" y="-494.3" font-family="Times,serif" font-size="14.00" fill="#000000">devis_travaux :character varying</text>
<text text-anchor="start" x="8" y="-480.3" font-family="Times,serif" font-size="14.00" fill="#000000">bon_de_commande_travaux :character varying</text>
<text text-anchor="start" x="8" y="-466.3" font-family="Times,serif" font-size="14.00" fill="#000000">date_previsionnelle_fin_travaux :date</text>
<text text-anchor="start" x="8" y="-452.3" font-family="Times,serif" font-size="14.00" fill="#000000">facture_travaux :character varying</text>
<text text-anchor="start" x="8" y="-438.3" font-family="Times,serif" font-size="14.00" fill="#000000">facture_montant :character varying</text>
<text text-anchor="start" x="8" y="-424.3" font-family="Times,serif" font-size="14.00" fill="#000000">delivery_id :bigint</text>
<text text-anchor="start" x="8" y="-410.3" font-family="Times,serif" font-size="14.00" fill="#000000">created_at :timestamp without time zone</text>
<text text-anchor="start" x="8" y="-396.3" font-family="Times,serif" font-size="14.00" fill="#000000">updated_at :timestamp without time zone</text>
<text text-anchor="start" x="8" y="-382.3" font-family="Times,serif" font-size="14.00" fill="#000000">files :json</text>
<text text-anchor="start" x="8" y="-368.3" font-family="Times,serif" font-size="14.00" fill="#000000">id :bigint</text>
</g>
<!-- Task -->
<g id="node18" class="node">
<title>Task</title>
<path fill="none" stroke="#000000" d="M27.9141,-105.5C27.9141,-105.5 251.6387,-105.5 251.6387,-105.5 257.6387,-105.5 263.6387,-111.5 263.6387,-117.5 263.6387,-117.5 263.6387,-193.5 263.6387,-193.5 263.6387,-199.5 257.6387,-205.5 251.6387,-205.5 251.6387,-205.5 27.9141,-205.5 27.9141,-205.5 21.9141,-205.5 15.9141,-199.5 15.9141,-193.5 15.9141,-193.5 15.9141,-117.5 15.9141,-117.5 15.9141,-111.5 21.9141,-105.5 27.9141,-105.5"/>
<text text-anchor="middle" x="139.7764" y="-190.3" font-family="Times,serif" font-size="14.00" fill="#000000">Task</text>
<polyline fill="none" stroke="#000000" points="15.9141,-183.5 263.6387,-183.5 "/>
<text text-anchor="start" x="23.9141" y="-168.3" font-family="Times,serif" font-size="14.00" fill="#000000">id :bigint</text>
<text text-anchor="start" x="23.9141" y="-154.3" font-family="Times,serif" font-size="14.00" fill="#000000">description :character varying</text>
<text text-anchor="start" x="23.9141" y="-140.3" font-family="Times,serif" font-size="14.00" fill="#000000">work_id :bigint</text>
<text text-anchor="start" x="23.9141" y="-126.3" font-family="Times,serif" font-size="14.00" fill="#000000">created_at :timestamp without time zone</text>
<text text-anchor="start" x="23.9141" y="-112.3" font-family="Times,serif" font-size="14.00" fill="#000000">updated_at :timestamp without time zone</text>
</g>
<!-- Work&#45;&gt;Task -->
<g id="edge1" class="edge">
<title>Work&#45;&gt;Task</title>
<path fill="none" stroke="#232296" d="M139.7764,-353.3537C139.7764,-306.7935 139.7764,-254.862 139.7764,-215.8894"/>
<ellipse fill="none" stroke="#232296" cx="139.7764" cy="-357.4357" rx="4" ry="4"/>
<polygon fill="#232296" stroke="#232296" points="139.7765,-215.7649 144.2764,-205.7649 139.7764,-210.7649 139.7764,-205.7649 139.7764,-205.7649 139.7764,-205.7649 139.7764,-210.7649 135.2764,-205.7649 139.7765,-215.7649 139.7765,-215.7649"/>
</g>
<!-- FactoryOrder -->
<g id="node5" class="node">
<title>FactoryOrder</title>
<path fill="none" stroke="#000000" d="M306.9585,-736.5C306.9585,-736.5 572.5942,-736.5 572.5942,-736.5 578.5942,-736.5 584.5942,-742.5 584.5942,-748.5 584.5942,-748.5 584.5942,-950.5 584.5942,-950.5 584.5942,-956.5 578.5942,-962.5 572.5942,-962.5 572.5942,-962.5 306.9585,-962.5 306.9585,-962.5 300.9585,-962.5 294.9585,-956.5 294.9585,-950.5 294.9585,-950.5 294.9585,-748.5 294.9585,-748.5 294.9585,-742.5 300.9585,-736.5 306.9585,-736.5"/>
<text text-anchor="middle" x="439.7764" y="-947.3" font-family="Times,serif" font-size="14.00" fill="#000000">FactoryOrder</text>
<polyline fill="none" stroke="#000000" points="294.9585,-940.5 584.5942,-940.5 "/>
<text text-anchor="start" x="302.9585" y="-925.3" font-family="Times,serif" font-size="14.00" fill="#000000">bus_id :bigint</text>
<text text-anchor="start" x="302.9585" y="-911.3" font-family="Times,serif" font-size="14.00" fill="#000000">envoiOF :character varying</text>
<text text-anchor="start" x="302.9585" y="-897.3" font-family="Times,serif" font-size="14.00" fill="#000000">date_limit_modif_config :date</text>
<text text-anchor="start" x="302.9585" y="-883.3" font-family="Times,serif" font-size="14.00" fill="#000000">reception_oc :character varying</text>
<text text-anchor="start" x="302.9585" y="-869.3" font-family="Times,serif" font-size="14.00" fill="#000000">dispo_fr :boolean</text>
<text text-anchor="start" x="302.9585" y="-855.3" font-family="Times,serif" font-size="14.00" fill="#000000">CDD :date</text>
<text text-anchor="start" x="302.9585" y="-841.3" font-family="Times,serif" font-size="14.00" fill="#000000">lieu_depart_usine :character varying</text>
<text text-anchor="start" x="302.9585" y="-827.3" font-family="Times,serif" font-size="14.00" fill="#000000">date_depart_usine :date</text>
<text text-anchor="start" x="302.9585" y="-813.3" font-family="Times,serif" font-size="14.00" fill="#000000">lieu_arrivee_partenaire_volvo :character varying</text>
<text text-anchor="start" x="302.9585" y="-799.3" font-family="Times,serif" font-size="14.00" fill="#000000">date_arrivee_partenaire_volvo :date</text>
<text text-anchor="start" x="302.9585" y="-785.3" font-family="Times,serif" font-size="14.00" fill="#000000">partenaire_prevenu :boolean</text>
<text text-anchor="start" x="302.9585" y="-771.3" font-family="Times,serif" font-size="14.00" fill="#000000">created_at :timestamp without time zone</text>
<text text-anchor="start" x="302.9585" y="-757.3" font-family="Times,serif" font-size="14.00" fill="#000000">updated_at :timestamp without time zone</text>
<text text-anchor="start" x="302.9585" y="-743.3" font-family="Times,serif" font-size="14.00" fill="#000000">id :bigint</text>
</g>
<!-- FactoryOrder&#45;&gt;Document -->
<g id="edge2" class="edge">
<title>FactoryOrder&#45;&gt;Document</title>
<path fill="none" stroke="#00a798" d="M436.9173,-728.1473C435.4778,-667.0483 433.7787,-594.9319 432.5331,-542.0624"/>
<ellipse fill="none" stroke="#00a798" cx="437.0183" cy="-732.439" rx="4" ry="4"/>
<polygon fill="#00a798" stroke="#00a798" points="432.5258,-541.7514 436.789,-531.6481 432.408,-536.7528 432.2902,-531.7541 432.2902,-531.7541 432.2902,-531.7541 432.408,-536.7528 427.7915,-531.8602 432.5258,-541.7514 432.5258,-541.7514"/>
</g>
<!-- OrderBook -->
<g id="node6" class="node">
<title>OrderBook</title>
<path fill="none" stroke="#000000" d="M652.9141,-806.5C652.9141,-806.5 876.6387,-806.5 876.6387,-806.5 882.6387,-806.5 888.6387,-812.5 888.6387,-818.5 888.6387,-818.5 888.6387,-880.5 888.6387,-880.5 888.6387,-886.5 882.6387,-892.5 876.6387,-892.5 876.6387,-892.5 652.9141,-892.5 652.9141,-892.5 646.9141,-892.5 640.9141,-886.5 640.9141,-880.5 640.9141,-880.5 640.9141,-818.5 640.9141,-818.5 640.9141,-812.5 646.9141,-806.5 652.9141,-806.5"/>
<text text-anchor="middle" x="764.7764" y="-877.3" font-family="Times,serif" font-size="14.00" fill="#000000">OrderBook</text>
<polyline fill="none" stroke="#000000" points="640.9141,-870.5 888.6387,-870.5 "/>
<text text-anchor="start" x="648.9141" y="-855.3" font-family="Times,serif" font-size="14.00" fill="#000000">id :bigint</text>
<text text-anchor="start" x="648.9141" y="-841.3" font-family="Times,serif" font-size="14.00" fill="#000000">name :character varying</text>
<text text-anchor="start" x="648.9141" y="-827.3" font-family="Times,serif" font-size="14.00" fill="#000000">created_at :timestamp without time zone</text>
<text text-anchor="start" x="648.9141" y="-813.3" font-family="Times,serif" font-size="14.00" fill="#000000">updated_at :timestamp without time zone</text>
</g>
<!-- Line -->
<g id="node10" class="node">
<title>Line</title>
<path fill="none" stroke="#000000" d="M1069.7827,-347.5C1069.7827,-347.5 1295.77,-347.5 1295.77,-347.5 1301.77,-347.5 1307.77,-353.5 1307.77,-359.5 1307.77,-359.5 1307.77,-575.5 1307.77,-575.5 1307.77,-581.5 1301.77,-587.5 1295.77,-587.5 1295.77,-587.5 1069.7827,-587.5 1069.7827,-587.5 1063.7827,-587.5 1057.7827,-581.5 1057.7827,-575.5 1057.7827,-575.5 1057.7827,-359.5 1057.7827,-359.5 1057.7827,-353.5 1063.7827,-347.5 1069.7827,-347.5"/>
<text text-anchor="middle" x="1182.7764" y="-572.3" font-family="Times,serif" font-size="14.00" fill="#000000">Line</text>
<polyline fill="none" stroke="#000000" points="1057.7827,-565.5 1307.77,-565.5 "/>
<text text-anchor="start" x="1065.7827" y="-550.3" font-family="Times,serif" font-size="14.00" fill="#000000">reprise :boolean</text>
<text text-anchor="start" x="1065.7827" y="-536.3" font-family="Times,serif" font-size="14.00" fill="#000000">delai_previsionnel :date</text>
<text text-anchor="start" x="1065.7827" y="-522.3" font-family="Times,serif" font-size="14.00" fill="#000000">date_livraison_bdc :date</text>
<text text-anchor="start" x="1065.7827" y="-508.3" font-family="Times,serif" font-size="14.00" fill="#000000">couleur_ext_vehicule :character varying</text>
<text text-anchor="start" x="1065.7827" y="-494.3" font-family="Times,serif" font-size="14.00" fill="#000000">financement_type :character varying</text>
<text text-anchor="start" x="1065.7827" y="-480.3" font-family="Times,serif" font-size="14.00" fill="#000000">mention_garantie :character varying</text>
<text text-anchor="start" x="1065.7827" y="-466.3" font-family="Times,serif" font-size="14.00" fill="#000000">mention_telematique :character varying</text>
<text text-anchor="start" x="1065.7827" y="-452.3" font-family="Times,serif" font-size="14.00" fill="#000000">order_id :bigint</text>
<text text-anchor="start" x="1065.7827" y="-438.3" font-family="Times,serif" font-size="14.00" fill="#000000">created_at :timestamp without time zone</text>
<text text-anchor="start" x="1065.7827" y="-424.3" font-family="Times,serif" font-size="14.00" fill="#000000">updated_at :timestamp without time zone</text>
<text text-anchor="start" x="1065.7827" y="-410.3" font-family="Times,serif" font-size="14.00" fill="#000000">bus_id :bigint</text>
<text text-anchor="start" x="1065.7827" y="-396.3" font-family="Times,serif" font-size="14.00" fill="#000000">order_book_id :bigint</text>
<text text-anchor="start" x="1065.7827" y="-382.3" font-family="Times,serif" font-size="14.00" fill="#000000">garantie_pep_tool :boolean</text>
<text text-anchor="start" x="1065.7827" y="-368.3" font-family="Times,serif" font-size="14.00" fill="#000000">telematique_demandee :character varying</text>
<text text-anchor="start" x="1065.7827" y="-354.3" font-family="Times,serif" font-size="14.00" fill="#000000">id :bigint</text>
</g>
<!-- OrderBook&#45;&gt;Line -->
<g id="edge3" class="edge">
<title>OrderBook&#45;&gt;Line</title>
<path fill="none" stroke="#2cf2ae" d="M785.1128,-798.8778C806.999,-749.4164 845.7918,-674.4118 897.7764,-624 940.7828,-582.2947 997.1122,-548.2719 1048.327,-522.7294"/>
<ellipse fill="none" stroke="#2cf2ae" cx="783.4777" cy="-802.6208" rx="4" ry="4"/>
<polygon fill="#2cf2ae" stroke="#2cf2ae" points="1048.5197,-522.6346 1059.4791,-522.2583 1053.0062,-520.4275 1057.4927,-518.2204 1057.4927,-518.2204 1057.4927,-518.2204 1053.0062,-520.4275 1055.5063,-514.1826 1048.5197,-522.6346 1048.5197,-522.6346"/>
</g>
<!-- Bus -->
<g id="node7" class="node">
<title>Bus</title>
<path fill="none" stroke="#000000" d="M700.207,-1111.5C700.207,-1111.5 943.3457,-1111.5 943.3457,-1111.5 949.3457,-1111.5 955.3457,-1117.5 955.3457,-1123.5 955.3457,-1123.5 955.3457,-1367.5 955.3457,-1367.5 955.3457,-1373.5 949.3457,-1379.5 943.3457,-1379.5 943.3457,-1379.5 700.207,-1379.5 700.207,-1379.5 694.207,-1379.5 688.207,-1373.5 688.207,-1367.5 688.207,-1367.5 688.207,-1123.5 688.207,-1123.5 688.207,-1117.5 694.207,-1111.5 700.207,-1111.5"/>
<text text-anchor="middle" x="821.7764" y="-1364.3" font-family="Times,serif" font-size="14.00" fill="#000000">Bus</text>
<polyline fill="none" stroke="#000000" points="688.207,-1357.5 955.3457,-1357.5 "/>
<text text-anchor="start" x="696.207" y="-1342.3" font-family="Times,serif" font-size="14.00" fill="#000000">description_id :bigint</text>
<text text-anchor="start" x="696.207" y="-1328.3" font-family="Times,serif" font-size="14.00" fill="#000000">numero_chassis :character varying</text>
<text text-anchor="start" x="696.207" y="-1314.3" font-family="Times,serif" font-size="14.00" fill="#000000">reference_usine :character varying</text>
<text text-anchor="start" x="696.207" y="-1300.3" font-family="Times,serif" font-size="14.00" fill="#000000">designation_configuration :character varying</text>
<text text-anchor="start" x="696.207" y="-1286.3" font-family="Times,serif" font-size="14.00" fill="#000000">bo_number :character varying</text>
<text text-anchor="start" x="696.207" y="-1272.3" font-family="Times,serif" font-size="14.00" fill="#000000">date_debut_garantie :date</text>
<text text-anchor="start" x="696.207" y="-1258.3" font-family="Times,serif" font-size="14.00" fill="#000000">kilometrage :integer</text>
<text text-anchor="start" x="696.207" y="-1244.3" font-family="Times,serif" font-size="14.00" fill="#000000">date_kilometrage :date</text>
<text text-anchor="start" x="696.207" y="-1230.3" font-family="Times,serif" font-size="14.00" fill="#000000">immatriculation :character varying</text>
<text text-anchor="start" x="696.207" y="-1216.3" font-family="Times,serif" font-size="14.00" fill="#000000">status1 :character varying</text>
<text text-anchor="start" x="696.207" y="-1202.3" font-family="Times,serif" font-size="14.00" fill="#000000">status2 :character varying</text>
<text text-anchor="start" x="696.207" y="-1188.3" font-family="Times,serif" font-size="14.00" fill="#000000">created_at :timestamp without time zone</text>
<text text-anchor="start" x="696.207" y="-1174.3" font-family="Times,serif" font-size="14.00" fill="#000000">updated_at :timestamp without time zone</text>
<text text-anchor="start" x="696.207" y="-1160.3" font-family="Times,serif" font-size="14.00" fill="#000000">type_id :bigint</text>
<text text-anchor="start" x="696.207" y="-1146.3" font-family="Times,serif" font-size="14.00" fill="#000000">ch_cb :character varying</text>
<text text-anchor="start" x="696.207" y="-1132.3" font-family="Times,serif" font-size="14.00" fill="#000000">sept_neuf :character varying</text>
<text text-anchor="start" x="696.207" y="-1118.3" font-family="Times,serif" font-size="14.00" fill="#000000">id :bigint</text>
</g>
<!-- Bus&#45;&gt;Ferry -->
<g id="edge7" class="edge">
<title>Bus&#45;&gt;Ferry</title>
<path fill="none" stroke="#6ddbbe" d="M896.3567,-1104.1899C923.1605,-1053.4037 952.8322,-997.1836 977.4647,-950.5116"/>
<ellipse fill="none" stroke="#6ddbbe" cx="894.4013" cy="-1107.8949" rx="4" ry="4"/>
<polygon fill="#6ddbbe" stroke="#6ddbbe" points="977.4948,-950.4545 986.1421,-943.7111 979.8286,-946.0326 982.1624,-941.6107 982.1624,-941.6107 982.1624,-941.6107 979.8286,-946.0326 978.1827,-939.5102 977.4948,-950.4545 977.4948,-950.4545"/>
</g>
<!-- Bus&#45;&gt;FactoryOrder -->
<g id="edge5" class="edge">
<title>Bus&#45;&gt;FactoryOrder</title>
<path fill="none" stroke="#09b1ea" d="M681.4398,-1148.6127C652.7077,-1125.9794 623.6712,-1100.8754 598.7764,-1075 568.6444,-1043.6812 539.8996,-1006.2384 515.3434,-970.946"/>
<ellipse fill="none" stroke="#09b1ea" cx="684.8007" cy="-1151.2409" rx="4" ry="4"/>
<polygon fill="#09b1ea" stroke="#09b1ea" points="515.198,-970.7352 513.2238,-959.9485 512.3588,-966.6194 509.5197,-962.5037 509.5197,-962.5037 509.5197,-962.5037 512.3588,-966.6194 505.8155,-965.0589 515.198,-970.7352 515.198,-970.7352"/>
</g>
<!-- Order -->
<g id="node9" class="node">
<title>Order</title>
<path fill="none" stroke="#000000" d="M1222.6069,-785.5C1222.6069,-785.5 1478.9458,-785.5 1478.9458,-785.5 1484.9458,-785.5 1490.9458,-791.5 1490.9458,-797.5 1490.9458,-797.5 1490.9458,-901.5 1490.9458,-901.5 1490.9458,-907.5 1484.9458,-913.5 1478.9458,-913.5 1478.9458,-913.5 1222.6069,-913.5 1222.6069,-913.5 1216.6069,-913.5 1210.6069,-907.5 1210.6069,-901.5 1210.6069,-901.5 1210.6069,-797.5 1210.6069,-797.5 1210.6069,-791.5 1216.6069,-785.5 1222.6069,-785.5"/>
<text text-anchor="middle" x="1350.7764" y="-898.3" font-family="Times,serif" font-size="14.00" fill="#000000">Order</text>
<polyline fill="none" stroke="#000000" points="1210.6069,-891.5 1490.9458,-891.5 "/>
<text text-anchor="start" x="1218.6069" y="-876.3" font-family="Times,serif" font-size="14.00" fill="#000000">id :bigint</text>
<text text-anchor="start" x="1218.6069" y="-862.3" font-family="Times,serif" font-size="14.00" fill="#000000">client :character varying</text>
<text text-anchor="start" x="1218.6069" y="-848.3" font-family="Times,serif" font-size="14.00" fill="#000000">numero_bon_de_commande :character varying</text>
<text text-anchor="start" x="1218.6069" y="-834.3" font-family="Times,serif" font-size="14.00" fill="#000000">date :date</text>
<text text-anchor="start" x="1218.6069" y="-820.3" font-family="Times,serif" font-size="14.00" fill="#000000">sales_advisor_id :bigint</text>
<text text-anchor="start" x="1218.6069" y="-806.3" font-family="Times,serif" font-size="14.00" fill="#000000">created_at :timestamp without time zone</text>
<text text-anchor="start" x="1218.6069" y="-792.3" font-family="Times,serif" font-size="14.00" fill="#000000">updated_at :timestamp without time zone</text>
</g>
<!-- Bus&#45;&gt;Order -->
<g id="edge6" class="edge">
<title>Bus&#45;&gt;Order</title>
<path fill="none" stroke="#263b8e" d="M964.8875,-1201.4188C1039.5694,-1173.5024 1129.1922,-1131.83 1196.7764,-1075 1246.7332,-1032.9924 1287.4987,-970.9446 1314.5096,-922.5631"/>
<polygon fill="#263b8e" stroke="#263b8e" points="964.7711,-1201.4618 953.8314,-1200.7039 960.0805,-1203.1936 955.39,-1204.9254 955.39,-1204.9254 955.39,-1204.9254 960.0805,-1203.1936 956.9486,-1209.1469 964.7711,-1201.4618 964.7711,-1201.4618"/>
<polygon fill="#263b8e" stroke="#263b8e" points="1314.5686,-922.4559 1323.3341,-915.8667 1316.9804,-918.076 1319.3922,-913.6961 1319.3922,-913.6961 1319.3922,-913.6961 1316.9804,-918.076 1315.4503,-911.5255 1314.5686,-922.4559 1314.5686,-922.4559"/>
</g>
<!-- Bus&#45;&gt;Line -->
<g id="edge4" class="edge">
<title>Bus&#45;&gt;Line</title>
<path fill="none" stroke="#48194f" d="M963.3133,-1212.2216C1036.202,-1187.2431 1118.9714,-1144.934 1163.7764,-1075 1188.7622,-1036.0009 1188.4127,-764.7455 1185.727,-598.1572"/>
<ellipse fill="none" stroke="#48194f" cx="959.1793" cy="-1213.61" rx="4" ry="4"/>
<polygon fill="#48194f" stroke="#48194f" points="1185.7217,-597.8329 1190.0549,-587.7595 1185.6386,-592.8336 1185.5555,-587.8343 1185.5555,-587.8343 1185.5555,-587.8343 1185.6386,-592.8336 1181.0561,-587.9091 1185.7217,-597.8329 1185.7217,-597.8329"/>
</g>
<!-- Trade -->
<g id="node12" class="node">
<title>Trade</title>
<path fill="none" stroke="#000000" d="M1063.1689,-.5C1063.1689,-.5 1302.3838,-.5 1302.3838,-.5 1308.3838,-.5 1314.3838,-6.5 1314.3838,-12.5 1314.3838,-12.5 1314.3838,-298.5 1314.3838,-298.5 1314.3838,-304.5 1308.3838,-310.5 1302.3838,-310.5 1302.3838,-310.5 1063.1689,-310.5 1063.1689,-310.5 1057.1689,-310.5 1051.1689,-304.5 1051.1689,-298.5 1051.1689,-298.5 1051.1689,-12.5 1051.1689,-12.5 1051.1689,-6.5 1057.1689,-.5 1063.1689,-.5"/>
<text text-anchor="middle" x="1182.7764" y="-295.3" font-family="Times,serif" font-size="14.00" fill="#000000">Trade</text>
<polyline fill="none" stroke="#000000" points="1051.1689,-288.5 1314.3838,-288.5 "/>
<text text-anchor="start" x="1059.1689" y="-273.3" font-family="Times,serif" font-size="14.00" fill="#000000">line_id :bigint</text>
<text text-anchor="start" x="1059.1689" y="-259.3" font-family="Times,serif" font-size="14.00" fill="#000000">prix_achat :character varying</text>
<text text-anchor="start" x="1059.1689" y="-245.3" font-family="Times,serif" font-size="14.00" fill="#000000">date_rentree_bdc :date</text>
<text text-anchor="start" x="1059.1689" y="-231.3" font-family="Times,serif" font-size="14.00" fill="#000000">date_rentree :date</text>
<text text-anchor="start" x="1059.1689" y="-217.3" font-family="Times,serif" font-size="14.00" fill="#000000">heure_rentree :time without time zone</text>
<text text-anchor="start" x="1059.1689" y="-203.3" font-family="Times,serif" font-size="14.00" fill="#000000">fiche_RCR :character varying</text>
<text text-anchor="start" x="1059.1689" y="-189.3" font-family="Times,serif" font-size="14.00" fill="#000000">demande_cession :character varying</text>
<text text-anchor="start" x="1059.1689" y="-175.3" font-family="Times,serif" font-size="14.00" fill="#000000">cerfa :character varying</text>
<text text-anchor="start" x="1059.1689" y="-161.3" font-family="Times,serif" font-size="14.00" fill="#000000">ci_barre :character varying</text>
<text text-anchor="start" x="1059.1689" y="-147.3" font-family="Times,serif" font-size="14.00" fill="#000000">controle_technique :character varying</text>
<text text-anchor="start" x="1059.1689" y="-133.3" font-family="Times,serif" font-size="14.00" fill="#000000">certif_non_gage :character varying</text>
<text text-anchor="start" x="1059.1689" y="-119.3" font-family="Times,serif" font-size="14.00" fill="#000000">coc :character varying</text>
<text text-anchor="start" x="1059.1689" y="-105.3" font-family="Times,serif" font-size="14.00" fill="#000000">attestation_amenagement :character varying</text>
<text text-anchor="start" x="1059.1689" y="-91.3" font-family="Times,serif" font-size="14.00" fill="#000000">lieu_conservation_papier :character varying</text>
<text text-anchor="start" x="1059.1689" y="-77.3" font-family="Times,serif" font-size="14.00" fill="#000000">travaux_previsionnels :character varying</text>
<text text-anchor="start" x="1059.1689" y="-63.3" font-family="Times,serif" font-size="14.00" fill="#000000">note :character varying</text>
<text text-anchor="start" x="1059.1689" y="-49.3" font-family="Times,serif" font-size="14.00" fill="#000000">created_at :timestamp without time zone</text>
<text text-anchor="start" x="1059.1689" y="-35.3" font-family="Times,serif" font-size="14.00" fill="#000000">updated_at :timestamp without time zone</text>
<text text-anchor="start" x="1059.1689" y="-21.3" font-family="Times,serif" font-size="14.00" fill="#000000">bus_id :bigint</text>
<text text-anchor="start" x="1059.1689" y="-7.3" font-family="Times,serif" font-size="14.00" fill="#000000">id :bigint</text>
</g>
<!-- Bus&#45;&gt;Trade -->
<g id="edge9" class="edge">
<title>Bus&#45;&gt;Trade</title>
<path fill="none" stroke="#282c16" d="M682.2419,-1146.6724C661.7401,-1125.5097 643.58,-1101.4516 631.7764,-1075 590.9355,-983.4767 589.717,-714.9698 631.7764,-624 715.7587,-442.3554 908.7308,-305.2982 1042.4369,-227.7138"/>
<ellipse fill="none" stroke="#282c16" cx="685.267" cy="-1149.7236" rx="4" ry="4"/>
<polygon fill="#282c16" stroke="#282c16" points="1042.4919,-227.6822 1053.4031,-226.5887 1046.8242,-225.1859 1051.1564,-222.6896 1051.1564,-222.6896 1051.1564,-222.6896 1046.8242,-225.1859 1048.9098,-218.7906 1042.4919,-227.6822 1042.4919,-227.6822"/>
</g>
<!-- Delivery -->
<g id="node13" class="node">
<title>Delivery</title>
<path fill="none" stroke="#000000" d="M14.3242,-624.5C14.3242,-624.5 265.2285,-624.5 265.2285,-624.5 271.2285,-624.5 277.2285,-630.5 277.2285,-636.5 277.2285,-636.5 277.2285,-1062.5 277.2285,-1062.5 277.2285,-1068.5 271.2285,-1074.5 265.2285,-1074.5 265.2285,-1074.5 14.3242,-1074.5 14.3242,-1074.5 8.3242,-1074.5 2.3242,-1068.5 2.3242,-1062.5 2.3242,-1062.5 2.3242,-636.5 2.3242,-636.5 2.3242,-630.5 8.3242,-624.5 14.3242,-624.5"/>
<text text-anchor="middle" x="139.7764" y="-1059.3" font-family="Times,serif" font-size="14.00" fill="#000000">Delivery</text>
<polyline fill="none" stroke="#000000" points="2.3242,-1052.5 277.2285,-1052.5 "/>
<text text-anchor="start" x="10.3242" y="-1037.3" font-family="Times,serif" font-size="14.00" fill="#000000">duree_buy_back :integer</text>
<text text-anchor="start" x="10.3242" y="-1023.3" font-family="Times,serif" font-size="14.00" fill="#000000">lieu_prepa :character varying</text>
<text text-anchor="start" x="10.3242" y="-1009.3" font-family="Times,serif" font-size="14.00" fill="#000000">date_livraison :date</text>
<text text-anchor="start" x="10.3242" y="-995.3" font-family="Times,serif" font-size="14.00" fill="#000000">heure_livraison :time without time zone</text>
<text text-anchor="start" x="10.3242" y="-981.3" font-family="Times,serif" font-size="14.00" fill="#000000">bon_de_commande :character varying</text>
<text text-anchor="start" x="10.3242" y="-967.3" font-family="Times,serif" font-size="14.00" fill="#000000">plan_implantation :character varying</text>
<text text-anchor="start" x="10.3242" y="-953.3" font-family="Times,serif" font-size="14.00" fill="#000000">info_peinture :character varying</text>
<text text-anchor="start" x="10.3242" y="-939.3" font-family="Times,serif" font-size="14.00" fill="#000000">info_pneu :character varying</text>
<text text-anchor="start" x="10.3242" y="-925.3" font-family="Times,serif" font-size="14.00" fill="#000000">plan_vocp_exl :character varying</text>
<text text-anchor="start" x="10.3242" y="-911.3" font-family="Times,serif" font-size="14.00" fill="#000000">fiche_rcr :character varying</text>
<text text-anchor="start" x="10.3242" y="-897.3" font-family="Times,serif" font-size="14.00" fill="#000000">email_entree_bdc :character varying</text>
<text text-anchor="start" x="10.3242" y="-883.3" font-family="Times,serif" font-size="14.00" fill="#000000">email_entree_bdc_date :character varying</text>
<text text-anchor="start" x="10.3242" y="-869.3" font-family="Times,serif" font-size="14.00" fill="#000000">photos :character varying</text>
<text text-anchor="start" x="10.3242" y="-855.3" font-family="Times,serif" font-size="14.00" fill="#000000">bl_recu :character varying</text>
<text text-anchor="start" x="10.3242" y="-841.3" font-family="Times,serif" font-size="14.00" fill="#000000">attestation_ead :character varying</text>
<text text-anchor="start" x="10.3242" y="-827.3" font-family="Times,serif" font-size="14.00" fill="#000000">attestation_limiteur_vitesse :character varying</text>
<text text-anchor="start" x="10.3242" y="-813.3" font-family="Times,serif" font-size="14.00" fill="#000000">dcok_recu :character varying</text>
<text text-anchor="start" x="10.3242" y="-799.3" font-family="Times,serif" font-size="14.00" fill="#000000">cdoc_envoye :date</text>
<text text-anchor="start" x="10.3242" y="-785.3" font-family="Times,serif" font-size="14.00" fill="#000000">enregistrement_cm :character varying</text>
<text text-anchor="start" x="10.3242" y="-771.3" font-family="Times,serif" font-size="14.00" fill="#000000">enregistrement_vda :character varying</text>
<text text-anchor="start" x="10.3242" y="-757.3" font-family="Times,serif" font-size="14.00" fill="#000000">bus_id :bigint</text>
<text text-anchor="start" x="10.3242" y="-743.3" font-family="Times,serif" font-size="14.00" fill="#000000">created_at :timestamp without time zone</text>
<text text-anchor="start" x="10.3242" y="-729.3" font-family="Times,serif" font-size="14.00" fill="#000000">updated_at :timestamp without time zone</text>
<text text-anchor="start" x="10.3242" y="-715.3" font-family="Times,serif" font-size="14.00" fill="#000000">place_id :bigint</text>
<text text-anchor="start" x="10.3242" y="-701.3" font-family="Times,serif" font-size="14.00" fill="#000000">lieu_livraison :character varying</text>
<text text-anchor="start" x="10.3242" y="-687.3" font-family="Times,serif" font-size="14.00" fill="#000000">date_facturation :date</text>
<text text-anchor="start" x="10.3242" y="-673.3" font-family="Times,serif" font-size="14.00" fill="#000000">montant :character varying</text>
<text text-anchor="start" x="10.3242" y="-659.3" font-family="Times,serif" font-size="14.00" fill="#000000">entitee :character varying</text>
<text text-anchor="start" x="10.3242" y="-645.3" font-family="Times,serif" font-size="14.00" fill="#000000">pourcentage_buy_back :character varying</text>
<text text-anchor="start" x="10.3242" y="-631.3" font-family="Times,serif" font-size="14.00" fill="#000000">id :bigint</text>
</g>
<!-- Bus&#45;&gt;Delivery -->
<g id="edge8" class="edge">
<title>Bus&#45;&gt;Delivery</title>
<path fill="none" stroke="#6e5f7e" d="M680.2047,-1227.3989C564.4532,-1206.6832 401.5735,-1163.413 285.7764,-1075 285.5968,-1074.8629 285.4174,-1074.7255 285.2382,-1074.5879"/>
<ellipse fill="none" stroke="#6e5f7e" cx="684.1685" cy="-1228.0973" rx="4" ry="4"/>
<polygon fill="#6e5f7e" stroke="#6e5f7e" points="285.0797,-1074.4608 280.0938,-1064.6939 281.1791,-1071.3327 277.2785,-1068.2045 277.2785,-1068.2045 277.2785,-1068.2045 281.1791,-1071.3327 274.4631,-1071.7151 285.0797,-1074.4608 285.0797,-1074.4608"/>
</g>
<!-- Type -->
<g id="node8" class="node">
<title>Type</title>
<path fill="none" stroke="#000000" d="M576.9141,-1444.5C576.9141,-1444.5 800.6387,-1444.5 800.6387,-1444.5 806.6387,-1444.5 812.6387,-1450.5 812.6387,-1456.5 812.6387,-1456.5 812.6387,-1518.5 812.6387,-1518.5 812.6387,-1524.5 806.6387,-1530.5 800.6387,-1530.5 800.6387,-1530.5 576.9141,-1530.5 576.9141,-1530.5 570.9141,-1530.5 564.9141,-1524.5 564.9141,-1518.5 564.9141,-1518.5 564.9141,-1456.5 564.9141,-1456.5 564.9141,-1450.5 570.9141,-1444.5 576.9141,-1444.5"/>
<text text-anchor="middle" x="688.7764" y="-1515.3" font-family="Times,serif" font-size="14.00" fill="#000000">Type</text>
<polyline fill="none" stroke="#000000" points="564.9141,-1508.5 812.6387,-1508.5 "/>
<text text-anchor="start" x="572.9141" y="-1493.3" font-family="Times,serif" font-size="14.00" fill="#000000">id :bigint</text>
<text text-anchor="start" x="572.9141" y="-1479.3" font-family="Times,serif" font-size="14.00" fill="#000000">name :character varying</text>
<text text-anchor="start" x="572.9141" y="-1465.3" font-family="Times,serif" font-size="14.00" fill="#000000">created_at :timestamp without time zone</text>
<text text-anchor="start" x="572.9141" y="-1451.3" font-family="Times,serif" font-size="14.00" fill="#000000">updated_at :timestamp without time zone</text>
</g>
<!-- Type&#45;&gt;Bus -->
<g id="edge10" class="edge">
<title>Type&#45;&gt;Bus</title>
<path fill="none" stroke="#2ff265" d="M716.4691,-1437.1117C724.448,-1422.5937 733.5735,-1405.9895 743.0416,-1388.7617"/>
<ellipse fill="none" stroke="#2ff265" cx="714.4807" cy="-1440.7298" rx="4" ry="4"/>
<polygon fill="#2ff265" stroke="#2ff265" points="743.2034,-1388.4673 751.9635,-1381.871 745.6116,-1384.0854 748.0199,-1379.7036 748.0199,-1379.7036 748.0199,-1379.7036 745.6116,-1384.0854 744.0762,-1377.5362 743.2034,-1388.4673 743.2034,-1388.4673"/>
</g>
<!-- Order&#45;&gt;Line -->
<g id="edge11" class="edge">
<title>Order&#45;&gt;Line</title>
<path fill="none" stroke="#e4b026" d="M1319.2156,-777.7368C1296.8774,-726.9439 1266.2932,-657.4015 1239.7425,-597.0302"/>
<ellipse fill="none" stroke="#e4b026" cx="1320.8571" cy="-781.4693" rx="4" ry="4"/>
<polygon fill="#e4b026" stroke="#e4b026" points="1239.713,-596.963 1239.8064,-585.9975 1237.7001,-592.386 1235.6872,-587.8091 1235.6872,-587.8091 1235.6872,-587.8091 1237.7001,-592.386 1231.5679,-589.6207 1239.713,-596.963 1239.713,-596.963"/>
</g>
<!-- Order&#45;&gt;Trade -->
<g id="edge12" class="edge">
<title>Order&#45;&gt;Trade</title>
<path fill="none" stroke="#481ef4" d="M1357.891,-775.3989C1364.8382,-675.1276 1367.9479,-492.0961 1316.7764,-347 1313.5373,-337.8158 1309.7279,-328.6705 1305.4835,-319.6376"/>
<polygon fill="#481ef4" stroke="#481ef4" points="1357.8868,-775.4584 1352.6755,-785.1068 1357.5253,-780.4453 1357.1637,-785.4322 1357.1637,-785.4322 1357.1637,-785.4322 1357.5253,-780.4453 1361.652,-785.7576 1357.8868,-775.4584 1357.8868,-775.4584"/>
<polygon fill="#481ef4" stroke="#481ef4" points="1305.4815,-319.6335 1305.1439,-308.6728 1303.2903,-315.1392 1301.099,-310.6449 1301.099,-310.6449 1301.099,-310.6449 1303.2903,-315.1392 1297.0542,-312.617 1305.4815,-319.6335 1305.4815,-319.6335"/>
</g>
<!-- Line&#45;&gt;Trade -->
<g id="edge13" class="edge">
<title>Line&#45;&gt;Trade</title>
<path fill="none" stroke="#9525de" d="M1182.7764,-339.1089C1182.7764,-333.0955 1182.7764,-327.0255 1182.7764,-320.9363"/>
<ellipse fill="none" stroke="#9525de" cx="1182.7764" cy="-343.3189" rx="4" ry="4"/>
<polygon fill="#9525de" stroke="#9525de" points="1182.7765,-320.677 1187.2764,-310.6769 1182.7764,-315.677 1182.7764,-310.677 1182.7764,-310.677 1182.7764,-310.677 1182.7764,-315.677 1178.2764,-310.677 1182.7765,-320.677 1182.7765,-320.677"/>
</g>
<!-- Description -->
<g id="node11" class="node">
<title>Description</title>
<path fill="none" stroke="#000000" d="M842.9141,-1444.5C842.9141,-1444.5 1066.6387,-1444.5 1066.6387,-1444.5 1072.6387,-1444.5 1078.6387,-1450.5 1078.6387,-1456.5 1078.6387,-1456.5 1078.6387,-1518.5 1078.6387,-1518.5 1078.6387,-1524.5 1072.6387,-1530.5 1066.6387,-1530.5 1066.6387,-1530.5 842.9141,-1530.5 842.9141,-1530.5 836.9141,-1530.5 830.9141,-1524.5 830.9141,-1518.5 830.9141,-1518.5 830.9141,-1456.5 830.9141,-1456.5 830.9141,-1450.5 836.9141,-1444.5 842.9141,-1444.5"/>
<text text-anchor="middle" x="954.7764" y="-1515.3" font-family="Times,serif" font-size="14.00" fill="#000000">Description</text>
<polyline fill="none" stroke="#000000" points="830.9141,-1508.5 1078.6387,-1508.5 "/>
<text text-anchor="start" x="838.9141" y="-1493.3" font-family="Times,serif" font-size="14.00" fill="#000000">id :bigint</text>
<text text-anchor="start" x="838.9141" y="-1479.3" font-family="Times,serif" font-size="14.00" fill="#000000">name :character varying</text>
<text text-anchor="start" x="838.9141" y="-1465.3" font-family="Times,serif" font-size="14.00" fill="#000000">created_at :timestamp without time zone</text>
<text text-anchor="start" x="838.9141" y="-1451.3" font-family="Times,serif" font-size="14.00" fill="#000000">updated_at :timestamp without time zone</text>
</g>
<!-- Description&#45;&gt;Bus -->
<g id="edge14" class="edge">
<title>Description&#45;&gt;Bus</title>
<path fill="none" stroke="#a6295b" d="M927.0836,-1437.1117C919.1047,-1422.5937 909.9793,-1405.9895 900.5111,-1388.7617"/>
<ellipse fill="none" stroke="#a6295b" cx="929.072" cy="-1440.7298" rx="4" ry="4"/>
<polygon fill="#a6295b" stroke="#a6295b" points="900.3493,-1388.4673 899.4765,-1377.5362 897.9411,-1384.0854 895.5329,-1379.7036 895.5329,-1379.7036 895.5329,-1379.7036 897.9411,-1384.0854 891.5892,-1381.871 900.3493,-1388.4673 900.3493,-1388.4673"/>
</g>
<!-- Delivery&#45;&gt;Document -->
<g id="edge15" class="edge">
<title>Delivery&#45;&gt;Document</title>
<path fill="none" stroke="#b3ee6e" d="M282.3751,-628.4009C283.5086,-626.9255 284.6424,-625.4583 285.7764,-624 308.3328,-594.992 335.1825,-564.964 359.6104,-539.0629"/>
<ellipse fill="none" stroke="#b3ee6e" cx="279.8327" cy="-631.7388" rx="4" ry="4"/>
<polygon fill="#b3ee6e" stroke="#b3ee6e" points="359.8851,-538.7734 370.032,-534.6152 363.3262,-535.1458 366.7672,-531.5182 366.7672,-531.5182 366.7672,-531.5182 363.3262,-535.1458 363.5024,-528.4213 359.8851,-538.7734 359.8851,-538.7734"/>
</g>
<!-- Delivery&#45;&gt;Work -->
<g id="edge16" class="edge">
<title>Delivery&#45;&gt;Work</title>
<path fill="none" stroke="#b3b0e1" d="M139.7764,-616.0946C139.7764,-605.1275 139.7764,-594.3568 139.7764,-583.9374"/>
<ellipse fill="none" stroke="#b3b0e1" cx="139.7764" cy="-620.2519" rx="4" ry="4"/>
<polygon fill="#b3b0e1" stroke="#b3b0e1" points="139.7765,-583.6407 144.2764,-573.6407 139.7764,-578.6407 139.7764,-573.6407 139.7764,-573.6407 139.7764,-573.6407 139.7764,-578.6407 135.2764,-573.6407 139.7765,-583.6407 139.7765,-583.6407"/>
</g>
<!-- ApplicationRecord -->
<g id="node14" class="node">
<title>ApplicationRecord</title>
<ellipse fill="none" stroke="#000000" cx="1173.7764" cy="-1487.5" rx="77.2916" ry="18"/>
<text text-anchor="middle" x="1173.7764" y="-1483.3" font-family="Times,serif" font-size="14.00" fill="#000000">ApplicationRecord</text>
</g>
<!-- SalesAdvisor -->
<g id="node15" class="node">
<title>SalesAdvisor</title>
<path fill="none" stroke="#000000" d="M1238.9141,-1202.5C1238.9141,-1202.5 1462.6387,-1202.5 1462.6387,-1202.5 1468.6387,-1202.5 1474.6387,-1208.5 1474.6387,-1214.5 1474.6387,-1214.5 1474.6387,-1276.5 1474.6387,-1276.5 1474.6387,-1282.5 1468.6387,-1288.5 1462.6387,-1288.5 1462.6387,-1288.5 1238.9141,-1288.5 1238.9141,-1288.5 1232.9141,-1288.5 1226.9141,-1282.5 1226.9141,-1276.5 1226.9141,-1276.5 1226.9141,-1214.5 1226.9141,-1214.5 1226.9141,-1208.5 1232.9141,-1202.5 1238.9141,-1202.5"/>
<text text-anchor="middle" x="1350.7764" y="-1273.3" font-family="Times,serif" font-size="14.00" fill="#000000">SalesAdvisor</text>
<polyline fill="none" stroke="#000000" points="1226.9141,-1266.5 1474.6387,-1266.5 "/>
<text text-anchor="start" x="1234.9141" y="-1251.3" font-family="Times,serif" font-size="14.00" fill="#000000">id :bigint</text>
<text text-anchor="start" x="1234.9141" y="-1237.3" font-family="Times,serif" font-size="14.00" fill="#000000">name :character varying</text>
<text text-anchor="start" x="1234.9141" y="-1223.3" font-family="Times,serif" font-size="14.00" fill="#000000">created_at :timestamp without time zone</text>
<text text-anchor="start" x="1234.9141" y="-1209.3" font-family="Times,serif" font-size="14.00" fill="#000000">updated_at :timestamp without time zone</text>
</g>
<!-- SalesAdvisor&#45;&gt;Order -->
<g id="edge17" class="edge">
<title>SalesAdvisor&#45;&gt;Order</title>
<path fill="none" stroke="#5c6481" d="M1350.7764,-1194.3377C1350.7764,-1125.6533 1350.7764,-1003.1512 1350.7764,-924.1648"/>
<ellipse fill="none" stroke="#5c6481" cx="1350.7764" cy="-1198.3672" rx="4" ry="4"/>
<polygon fill="#5c6481" stroke="#5c6481" points="1350.7765,-923.7978 1355.2764,-913.7977 1350.7764,-918.7978 1350.7764,-913.7978 1350.7764,-913.7978 1350.7764,-913.7978 1350.7764,-918.7978 1346.2764,-913.7978 1350.7765,-923.7978 1350.7765,-923.7978"/>
</g>
<!-- User -->
<g id="node16" class="node">
<title>User</title>
<path fill="none" stroke="#000000" d="M1281.1416,-1416.5C1281.1416,-1416.5 1576.4111,-1416.5 1576.4111,-1416.5 1582.4111,-1416.5 1588.4111,-1422.5 1588.4111,-1428.5 1588.4111,-1428.5 1588.4111,-1546.5 1588.4111,-1546.5 1588.4111,-1552.5 1582.4111,-1558.5 1576.4111,-1558.5 1576.4111,-1558.5 1281.1416,-1558.5 1281.1416,-1558.5 1275.1416,-1558.5 1269.1416,-1552.5 1269.1416,-1546.5 1269.1416,-1546.5 1269.1416,-1428.5 1269.1416,-1428.5 1269.1416,-1422.5 1275.1416,-1416.5 1281.1416,-1416.5"/>
<text text-anchor="middle" x="1428.7764" y="-1543.3" font-family="Times,serif" font-size="14.00" fill="#000000">User</text>
<polyline fill="none" stroke="#000000" points="1269.1416,-1536.5 1588.4111,-1536.5 "/>
<text text-anchor="start" x="1277.1416" y="-1521.3" font-family="Times,serif" font-size="14.00" fill="#000000">updated_at :timestamp without time zone</text>
<text text-anchor="start" x="1277.1416" y="-1507.3" font-family="Times,serif" font-size="14.00" fill="#000000">email :character varying</text>
<text text-anchor="start" x="1277.1416" y="-1493.3" font-family="Times,serif" font-size="14.00" fill="#000000">encrypted_password :character varying</text>
<text text-anchor="start" x="1277.1416" y="-1479.3" font-family="Times,serif" font-size="14.00" fill="#000000">reset_password_token :character varying</text>
<text text-anchor="start" x="1277.1416" y="-1465.3" font-family="Times,serif" font-size="14.00" fill="#000000">reset_password_sent_at :timestamp without time zone</text>
<text text-anchor="start" x="1277.1416" y="-1451.3" font-family="Times,serif" font-size="14.00" fill="#000000">remember_created_at :timestamp without time zone</text>
<text text-anchor="start" x="1277.1416" y="-1437.3" font-family="Times,serif" font-size="14.00" fill="#000000">created_at :timestamp without time zone</text>
<text text-anchor="start" x="1277.1416" y="-1423.3" font-family="Times,serif" font-size="14.00" fill="#000000">id :bigint</text>
</g>
<!-- Place -->
<g id="node17" class="node">
<title>Place</title>
<path fill="none" stroke="#000000" d="M27.9141,-1195.5C27.9141,-1195.5 251.6387,-1195.5 251.6387,-1195.5 257.6387,-1195.5 263.6387,-1201.5 263.6387,-1207.5 263.6387,-1207.5 263.6387,-1283.5 263.6387,-1283.5 263.6387,-1289.5 257.6387,-1295.5 251.6387,-1295.5 251.6387,-1295.5 27.9141,-1295.5 27.9141,-1295.5 21.9141,-1295.5 15.9141,-1289.5 15.9141,-1283.5 15.9141,-1283.5 15.9141,-1207.5 15.9141,-1207.5 15.9141,-1201.5 21.9141,-1195.5 27.9141,-1195.5"/>
<text text-anchor="middle" x="139.7764" y="-1280.3" font-family="Times,serif" font-size="14.00" fill="#000000">Place</text>
<polyline fill="none" stroke="#000000" points="15.9141,-1273.5 263.6387,-1273.5 "/>
<text text-anchor="start" x="23.9141" y="-1258.3" font-family="Times,serif" font-size="14.00" fill="#000000">id :bigint</text>
<text text-anchor="start" x="23.9141" y="-1244.3" font-family="Times,serif" font-size="14.00" fill="#000000">city :character varying</text>
<text text-anchor="start" x="23.9141" y="-1230.3" font-family="Times,serif" font-size="14.00" fill="#000000">adress :character varying</text>
<text text-anchor="start" x="23.9141" y="-1216.3" font-family="Times,serif" font-size="14.00" fill="#000000">created_at :timestamp without time zone</text>
<text text-anchor="start" x="23.9141" y="-1202.3" font-family="Times,serif" font-size="14.00" fill="#000000">updated_at :timestamp without time zone</text>
</g>
<!-- Place&#45;&gt;Delivery -->
<g id="edge18" class="edge">
<title>Place&#45;&gt;Delivery</title>
<path fill="none" stroke="#98b280" d="M139.7764,-1187.3034C139.7764,-1158.9863 139.7764,-1122.8803 139.7764,-1084.8675"/>
<ellipse fill="none" stroke="#98b280" cx="139.7764" cy="-1191.3463" rx="4" ry="4"/>
<polygon fill="#98b280" stroke="#98b280" points="139.7765,-1084.6354 144.2764,-1074.6354 139.7764,-1079.6354 139.7764,-1074.6354 139.7764,-1074.6354 139.7764,-1074.6354 139.7764,-1079.6354 135.2764,-1074.6355 139.7765,-1084.6354 139.7765,-1084.6354"/>
</g>
</g>
</svg>
