<?xml version="1.0" encoding="UTF-8" standalone="no"?>
<!DOCTYPE svg PUBLIC "-//W3C//DTD SVG 1.1//EN"
 "http://www.w3.org/Graphics/SVG/1.1/DTD/svg11.dtd">
<!-- Generated by graphviz version 2.40.1 (20161225.0304)
 -->
<!-- Title: models_diagram Pages: 1 -->
<svg width="727pt" height="369pt"
 viewBox="0.00 0.00 726.69 369.00" xmlns="http://www.w3.org/2000/svg" xmlns:xlink="http://www.w3.org/1999/xlink">
<g id="graph0" class="graph" transform="scale(1 1) rotate(0) translate(4 365)">
<title>models_diagram</title>
<polygon fill="transparent" stroke="transparent" points="-4,4 -4,-365 722.6877,-365 722.6877,4 -4,4"/>
<!-- _diagram_info -->
<g id="node1" class="node">
<title>_diagram_info</title>
<text text-anchor="start" x="8" y="-346.6" font-family="Times,serif" font-size="13.00" fill="#000000">Models diagram</text>
<text text-anchor="start" x="8" y="-333.6" font-family="Times,serif" font-size="13.00" fill="#000000">Date: May 03 2019 &#45; 12:03</text>
<text text-anchor="start" x="8" y="-320.6" font-family="Times,serif" font-size="13.00" fill="#000000">Migration version: 20190430134848</text>
<text text-anchor="start" x="8" y="-307.6" font-family="Times,serif" font-size="13.00" fill="#000000">Generated by RailRoady 1.5.3</text>
<text text-anchor="start" x="8" y="-294.6" font-family="Times,serif" font-size="13.00" fill="#000000">http://railroady.prestonlee.com</text>
</g>
<!-- Sale -->
<g id="node2" class="node">
<title>Sale</title>
<ellipse fill="none" stroke="#000000" cx="252.6877" cy="-324.5" rx="27" ry="18"/>
<text text-anchor="middle" x="252.6877" y="-320.3" font-family="Times,serif" font-size="14.00" fill="#000000">Sale</text>
</g>
<!-- Ferry -->
<g id="node3" class="node">
<title>Ferry</title>
<ellipse fill="none" stroke="#000000" cx="462.6877" cy="-162" rx="29.0257" ry="18"/>
<text text-anchor="middle" x="462.6877" y="-157.8" font-family="Times,serif" font-size="14.00" fill="#000000">Ferry</text>
</g>
<!-- Document -->
<g id="node4" class="node">
<title>Document</title>
<ellipse fill="none" stroke="#000000" cx="189.6877" cy="-90" rx="46.8891" ry="18"/>
<text text-anchor="middle" x="189.6877" y="-85.8" font-family="Times,serif" font-size="14.00" fill="#000000">Document</text>
</g>
<!-- Work -->
<g id="node5" class="node">
<title>Work</title>
<ellipse fill="none" stroke="#000000" cx="84.6877" cy="-90" rx="29.5766" ry="18"/>
<text text-anchor="middle" x="84.6877" y="-85.8" font-family="Times,serif" font-size="14.00" fill="#000000">Work</text>
</g>
<!-- Task -->
<g id="node19" class="node">
<title>Task</title>
<ellipse fill="none" stroke="#000000" cx="84.6877" cy="-18" rx="27" ry="18"/>
<text text-anchor="middle" x="84.6877" y="-13.8" font-family="Times,serif" font-size="14.00" fill="#000000">Task</text>
</g>
<!-- Work&#45;&gt;Task -->
<g id="edge1" class="edge">
<title>Work&#45;&gt;Task</title>
<path fill="none" stroke="#55e218" d="M84.6877,-63.8144C84.6877,-58.2775 84.6877,-52.4053 84.6877,-46.7785"/>
<ellipse fill="none" stroke="#55e218" cx="84.6878" cy="-67.8314" rx="4" ry="4"/>
<polygon fill="#55e218" stroke="#55e218" points="84.6878,-46.4133 89.1877,-36.4132 84.6878,-41.4133 84.6877,-36.4133 84.6877,-36.4133 84.6877,-36.4133 84.6878,-41.4133 80.1877,-36.4133 84.6878,-46.4133 84.6878,-46.4133"/>
</g>
<!-- FactoryOrder -->
<g id="node6" class="node">
<title>FactoryOrder</title>
<ellipse fill="none" stroke="#000000" cx="201.6877" cy="-162" rx="57.9892" ry="18"/>
<text text-anchor="middle" x="201.6877" y="-157.8" font-family="Times,serif" font-size="14.00" fill="#000000">FactoryOrder</text>
</g>
<!-- FactoryOrder&#45;&gt;Document -->
<g id="edge2" class="edge">
<title>FactoryOrder&#45;&gt;Document</title>
<path fill="none" stroke="#11bbf1" d="M197.3235,-135.8144C196.377,-130.1355 195.3717,-124.1039 194.4121,-118.3461"/>
<ellipse fill="none" stroke="#11bbf1" cx="198.002" cy="-139.8858" rx="4" ry="4"/>
<polygon fill="#11bbf1" stroke="#11bbf1" points="194.4007,-118.2772 197.1954,-107.6734 193.5787,-113.3452 192.7566,-108.4133 192.7566,-108.4133 192.7566,-108.4133 193.5787,-113.3452 188.3178,-109.1531 194.4007,-118.2772 194.4007,-118.2772"/>
</g>
<!-- OrderBook -->
<g id="node7" class="node">
<title>OrderBook</title>
<ellipse fill="none" stroke="#000000" cx="365.6877" cy="-162" rx="49.7878" ry="18"/>
<text text-anchor="middle" x="365.6877" y="-157.8" font-family="Times,serif" font-size="14.00" fill="#000000">OrderBook</text>
</g>
<!-- Line -->
<g id="node11" class="node">
<title>Line</title>
<ellipse fill="none" stroke="#000000" cx="519.6877" cy="-90" rx="27" ry="18"/>
<text text-anchor="middle" x="519.6877" y="-85.8" font-family="Times,serif" font-size="14.00" fill="#000000">Line</text>
</g>
<!-- OrderBook&#45;&gt;Line -->
<g id="edge3" class="edge">
<title>OrderBook&#45;&gt;Line</title>
<path fill="none" stroke="#743c76" d="M403.7299,-144.214C429.7244,-132.0608 463.761,-116.1476 488.2255,-104.7096"/>
<ellipse fill="none" stroke="#743c76" cx="400.1053" cy="-145.9086" rx="4" ry="4"/>
<polygon fill="#743c76" stroke="#743c76" points="488.362,-104.6459 499.3267,-104.487 492.8914,-102.5282 497.4208,-100.4105 497.4208,-100.4105 497.4208,-100.4105 492.8914,-102.5282 495.5149,-96.3341 488.362,-104.6459 488.362,-104.6459"/>
</g>
<!-- Bus -->
<g id="node8" class="node">
<title>Bus</title>
<ellipse fill="none" stroke="#000000" cx="374.6877" cy="-234" rx="27" ry="18"/>
<text text-anchor="middle" x="374.6877" y="-229.8" font-family="Times,serif" font-size="14.00" fill="#000000">Bus</text>
</g>
<!-- Bus&#45;&gt;Ferry -->
<g id="edge7" class="edge">
<title>Bus&#45;&gt;Ferry</title>
<path fill="none" stroke="#448ffa" d="M398.5138,-214.5059C410.4345,-204.7527 424.8766,-192.9364 437.0394,-182.985"/>
<ellipse fill="none" stroke="#448ffa" cx="395.1696" cy="-217.2421" rx="4" ry="4"/>
<polygon fill="#448ffa" stroke="#448ffa" points="437.2971,-182.7742 447.8863,-179.9246 441.1669,-179.608 445.0367,-176.4418 445.0367,-176.4418 445.0367,-176.4418 441.1669,-179.608 442.1871,-172.959 437.2971,-182.7742 437.2971,-182.7742"/>
</g>
<!-- Bus&#45;&gt;FactoryOrder -->
<g id="edge5" class="edge">
<title>Bus&#45;&gt;FactoryOrder</title>
<path fill="none" stroke="#2e5686" d="M344.0319,-221.2415C316.8248,-209.9183 276.7433,-193.237 246.0391,-180.4584"/>
<ellipse fill="none" stroke="#2e5686" cx="348.0217" cy="-222.902" rx="4" ry="4"/>
<polygon fill="#2e5686" stroke="#2e5686" points="245.6602,-180.3007 238.157,-172.3038 241.0441,-178.3795 236.4279,-176.4583 236.4279,-176.4583 236.4279,-176.4583 241.0441,-178.3795 234.6988,-180.6129 245.6602,-180.3007 245.6602,-180.3007"/>
</g>
<!-- Order -->
<g id="node10" class="node">
<title>Order</title>
<ellipse fill="none" stroke="#000000" cx="578.6877" cy="-162" rx="30.9619" ry="18"/>
<text text-anchor="middle" x="578.6877" y="-157.8" font-family="Times,serif" font-size="14.00" fill="#000000">Order</text>
</g>
<!-- Bus&#45;&gt;Order -->
<g id="edge6" class="edge">
<title>Bus&#45;&gt;Order</title>
<path fill="none" stroke="#f8ce11" d="M408.9246,-222.9553C441.2504,-212.3897 490.9999,-195.7738 533.6877,-180 536.9435,-178.797 540.3184,-177.5143 543.6895,-176.2088"/>
<polygon fill="#f8ce11" stroke="#f8ce11" points="408.5808,-223.0672 397.6787,-221.8856 403.8266,-224.6158 399.0725,-226.1644 399.0725,-226.1644 399.0725,-226.1644 403.8266,-224.6158 400.4662,-230.4431 408.5808,-223.0672 408.5808,-223.0672"/>
<polygon fill="#f8ce11" stroke="#f8ce11" points="543.7718,-176.1765 554.7249,-176.7046 548.4249,-174.3467 553.0781,-172.5168 553.0781,-172.5168 553.0781,-172.5168 548.4249,-174.3467 551.4312,-168.329 543.7718,-176.1765 543.7718,-176.1765"/>
</g>
<!-- Bus&#45;&gt;Line -->
<g id="edge4" class="edge">
<title>Bus&#45;&gt;Line</title>
<path fill="none" stroke="#05fc13" d="M409.3385,-228.2331C438.1091,-221.5957 477.8834,-207.801 500.6877,-180 514.7876,-162.8107 519.171,-137.7004 520.236,-118.3679"/>
<ellipse fill="none" stroke="#05fc13" cx="405.077" cy="-229.1524" rx="4" ry="4"/>
<polygon fill="#05fc13" stroke="#05fc13" points="520.2377,-118.3049 525.025,-108.4392 520.3823,-113.307 520.5269,-108.309 520.5269,-108.309 520.5269,-108.309 520.3823,-113.307 516.0287,-108.1789 520.2377,-118.3049 520.2377,-118.3049"/>
</g>
<!-- Trade -->
<g id="node13" class="node">
<title>Trade</title>
<ellipse fill="none" stroke="#000000" cx="519.6877" cy="-18" rx="30.3385" ry="18"/>
<text text-anchor="middle" x="519.6877" y="-13.8" font-family="Times,serif" font-size="14.00" fill="#000000">Trade</text>
</g>
<!-- Bus&#45;&gt;Trade -->
<g id="edge9" class="edge">
<title>Bus&#45;&gt;Trade</title>
<path fill="none" stroke="#af52fe" d="M345.7919,-219.2958C331.1833,-210.1588 314.8557,-196.9164 306.6877,-180 299.7308,-165.5916 298.7612,-157.8985 306.6877,-144 344.2243,-78.1828 431.1226,-43.2524 481.5623,-27.8877"/>
<ellipse fill="none" stroke="#af52fe" cx="349.3433" cy="-221.4062" rx="4" ry="4"/>
<polygon fill="#af52fe" stroke="#af52fe" points="481.8452,-27.8047 492.708,-29.3047 486.6426,-26.3959 491.4401,-24.9871 491.4401,-24.9871 491.4401,-24.9871 486.6426,-26.3959 490.1721,-20.6694 481.8452,-27.8047 481.8452,-27.8047"/>
</g>
<!-- Delivery -->
<g id="node14" class="node">
<title>Delivery</title>
<ellipse fill="none" stroke="#000000" cx="84.6877" cy="-162" rx="41.092" ry="18"/>
<text text-anchor="middle" x="84.6877" y="-157.8" font-family="Times,serif" font-size="14.00" fill="#000000">Delivery</text>
</g>
<!-- Bus&#45;&gt;Delivery -->
<g id="edge8" class="edge">
<title>Bus&#45;&gt;Delivery</title>
<path fill="none" stroke="#590426" d="M340.4925,-227.6963C293.6307,-218.7432 207.0227,-201.0695 134.6877,-180 131.5875,-179.097 128.4004,-178.1044 125.2081,-177.0637"/>
<ellipse fill="none" stroke="#590426" cx="344.5619" cy="-228.4681" rx="4" ry="4"/>
<polygon fill="#590426" stroke="#590426" points="125.1677,-177.05 117.1427,-169.5767 120.4325,-175.4442 115.6974,-173.8383 115.6974,-173.8383 115.6974,-173.8383 120.4325,-175.4442 114.2521,-178.0999 125.1677,-177.05 125.1677,-177.05"/>
</g>
<!-- Type -->
<g id="node9" class="node">
<title>Type</title>
<ellipse fill="none" stroke="#000000" cx="325.6877" cy="-324.5" rx="27.8207" ry="18"/>
<text text-anchor="middle" x="325.6877" y="-320.3" font-family="Times,serif" font-size="14.00" fill="#000000">Type</text>
</g>
<!-- Type&#45;&gt;Bus -->
<g id="edge10" class="edge">
<title>Type&#45;&gt;Bus</title>
<path fill="none" stroke="#7b714e" d="M338.8334,-300.2208C345.551,-287.8139 353.7307,-272.7063 360.5802,-260.0557"/>
<ellipse fill="none" stroke="#7b714e" cx="336.8088" cy="-303.9601" rx="4" ry="4"/>
<polygon fill="#7b714e" stroke="#7b714e" points="360.7512,-259.7398 369.4697,-253.0886 363.1319,-255.3429 365.5125,-250.946 365.5125,-250.946 365.5125,-250.946 363.1319,-255.3429 361.5553,-248.8034 360.7512,-259.7398 360.7512,-259.7398"/>
</g>
<!-- Order&#45;&gt;Line -->
<g id="edge11" class="edge">
<title>Order&#45;&gt;Line</title>
<path fill="none" stroke="#4a6716" d="M560.0604,-139.2683C553.4762,-131.2333 546.0518,-122.173 539.382,-114.0336"/>
<ellipse fill="none" stroke="#4a6716" cx="562.7644" cy="-142.5682" rx="4" ry="4"/>
<polygon fill="#4a6716" stroke="#4a6716" points="539.361,-114.0081 536.5034,-103.421 536.1919,-110.1407 533.0228,-106.2733 533.0228,-106.2733 533.0228,-106.2733 536.1919,-110.1407 529.5421,-109.1255 539.361,-114.0081 539.361,-114.0081"/>
</g>
<!-- Order&#45;&gt;Trade -->
<g id="edge12" class="edge">
<title>Order&#45;&gt;Trade</title>
<path fill="none" stroke="#bb8733" d="M574.0348,-133.849C570.4228,-115.6812 564.5203,-91.8264 555.6877,-72 551.2172,-61.9651 544.9301,-51.7411 538.8585,-42.9275"/>
<polygon fill="#bb8733" stroke="#bb8733" points="574.0604,-133.9862 571.4786,-144.6438 574.981,-138.9007 575.9017,-143.8153 575.9017,-143.8153 575.9017,-143.8153 574.981,-138.9007 580.3247,-142.9867 574.0604,-133.9862 574.0604,-133.9862"/>
<polygon fill="#bb8733" stroke="#bb8733" points="538.7512,-42.7775 536.5943,-32.0258 535.8426,-38.7105 532.934,-34.6435 532.934,-34.6435 532.934,-34.6435 535.8426,-38.7105 529.2737,-37.2612 538.7512,-42.7775 538.7512,-42.7775"/>
</g>
<!-- Line&#45;&gt;Trade -->
<g id="edge13" class="edge">
<title>Line&#45;&gt;Trade</title>
<path fill="none" stroke="#541da4" d="M519.6877,-63.8144C519.6877,-58.2775 519.6877,-52.4053 519.6877,-46.7785"/>
<ellipse fill="none" stroke="#541da4" cx="519.6878" cy="-67.8314" rx="4" ry="4"/>
<polygon fill="#541da4" stroke="#541da4" points="519.6878,-46.4133 524.1877,-36.4132 519.6878,-41.4133 519.6877,-36.4133 519.6877,-36.4133 519.6877,-36.4133 519.6878,-41.4133 515.1877,-36.4133 519.6878,-46.4133 519.6878,-46.4133"/>
</g>
<!-- Description -->
<g id="node12" class="node">
<title>Description</title>
<ellipse fill="none" stroke="#000000" cx="422.6877" cy="-324.5" rx="51.2329" ry="18"/>
<text text-anchor="middle" x="422.6877" y="-320.3" font-family="Times,serif" font-size="14.00" fill="#000000">Description</text>
</g>
<!-- Description&#45;&gt;Bus -->
<g id="edge14" class="edge">
<title>Description&#45;&gt;Bus</title>
<path fill="none" stroke="#791958" d="M409.3982,-299.4436C402.9142,-287.2187 395.1182,-272.52 388.5586,-260.1523"/>
<ellipse fill="none" stroke="#791958" cx="411.3302" cy="-303.0864" rx="4" ry="4"/>
<polygon fill="#791958" stroke="#791958" points="388.5113,-260.063 387.8011,-249.1202 386.1684,-255.6459 383.8256,-251.2287 383.8256,-251.2287 383.8256,-251.2287 386.1684,-255.6459 379.8502,-253.3373 388.5113,-260.063 388.5113,-260.063"/>
</g>
<!-- Delivery&#45;&gt;Document -->
<g id="edge15" class="edge">
<title>Delivery&#45;&gt;Document</title>
<path fill="none" stroke="#6fb7fb" d="M113.8424,-142.0082C127.6689,-132.5272 144.2081,-121.1861 158.3081,-111.5174"/>
<ellipse fill="none" stroke="#6fb7fb" cx="110.2545" cy="-144.4685" rx="4" ry="4"/>
<polygon fill="#6fb7fb" stroke="#6fb7fb" points="158.4789,-111.4004 169.2711,-109.4564 162.6025,-108.5727 166.7262,-105.7451 166.7262,-105.7451 166.7262,-105.7451 162.6025,-108.5727 164.1813,-102.0338 158.4789,-111.4004 158.4789,-111.4004"/>
</g>
<!-- Delivery&#45;&gt;Work -->
<g id="edge16" class="edge">
<title>Delivery&#45;&gt;Work</title>
<path fill="none" stroke="#652638" d="M84.6877,-135.8144C84.6877,-130.2775 84.6877,-124.4053 84.6877,-118.7785"/>
<ellipse fill="none" stroke="#652638" cx="84.6878" cy="-139.8314" rx="4" ry="4"/>
<polygon fill="#652638" stroke="#652638" points="84.6878,-118.4133 89.1877,-108.4132 84.6878,-113.4133 84.6877,-108.4133 84.6877,-108.4133 84.6877,-108.4133 84.6878,-113.4133 80.1877,-108.4133 84.6878,-118.4133 84.6878,-118.4133"/>
</g>
<!-- ApplicationRecord -->
<g id="node15" class="node">
<title>ApplicationRecord</title>
<ellipse fill="none" stroke="#000000" cx="569.6877" cy="-324.5" rx="77.2916" ry="18"/>
<text text-anchor="middle" x="569.6877" y="-320.3" font-family="Times,serif" font-size="14.00" fill="#000000">ApplicationRecord</text>
</g>
<!-- SalesAdvisor -->
<g id="node16" class="node">
<title>SalesAdvisor</title>
<ellipse fill="none" stroke="#000000" cx="578.6877" cy="-234" rx="57.0391" ry="18"/>
<text text-anchor="middle" x="578.6877" y="-229.8" font-family="Times,serif" font-size="14.00" fill="#000000">SalesAdvisor</text>
</g>
<!-- SalesAdvisor&#45;&gt;Order -->
<g id="edge17" class="edge">
<title>SalesAdvisor&#45;&gt;Order</title>
<path fill="none" stroke="#7b8e48" d="M578.6877,-207.8144C578.6877,-202.2775 578.6877,-196.4053 578.6877,-190.7785"/>
<ellipse fill="none" stroke="#7b8e48" cx="578.6878" cy="-211.8314" rx="4" ry="4"/>
<polygon fill="#7b8e48" stroke="#7b8e48" points="578.6878,-190.4133 583.1877,-180.4132 578.6878,-185.4133 578.6877,-180.4133 578.6877,-180.4133 578.6877,-180.4133 578.6878,-185.4133 574.1877,-180.4133 578.6878,-190.4133 578.6878,-190.4133"/>
</g>
<!-- User -->
<g id="node17" class="node">
<title>User</title>
<ellipse fill="none" stroke="#000000" cx="691.6877" cy="-324.5" rx="27" ry="18"/>
<text text-anchor="middle" x="691.6877" y="-320.3" font-family="Times,serif" font-size="14.00" fill="#000000">User</text>
</g>
<!-- Place -->
<g id="node18" class="node">
<title>Place</title>
<ellipse fill="none" stroke="#000000" cx="84.6877" cy="-234" rx="29.0172" ry="18"/>
<text text-anchor="middle" x="84.6877" y="-229.8" font-family="Times,serif" font-size="14.00" fill="#000000">Place</text>
</g>
<!-- Place&#45;&gt;Delivery -->
<g id="edge18" class="edge">
<title>Place&#45;&gt;Delivery</title>
<path fill="none" stroke="#48e1f3" d="M84.6877,-207.8144C84.6877,-202.2775 84.6877,-196.4053 84.6877,-190.7785"/>
<ellipse fill="none" stroke="#48e1f3" cx="84.6878" cy="-211.8314" rx="4" ry="4"/>
<polygon fill="#48e1f3" stroke="#48e1f3" points="84.6878,-190.4133 89.1877,-180.4132 84.6878,-185.4133 84.6877,-180.4133 84.6877,-180.4133 84.6877,-180.4133 84.6878,-185.4133 80.1877,-180.4133 84.6878,-190.4133 84.6878,-190.4133"/>
</g>
</g>
</svg>
